<svg width="468" height="287" viewBox="0 0 468 287" fill="none" xmlns="http://www.w3.org/2000/svg">
<path d="M467.312 286.489H371.857L370.338 284.893H467.312V286.489ZM467.312 274.146H360.107L358.587 272.549H467.312V274.146ZM467.312 261.803H348.356L346.837 260.206H467.312V261.803ZM467.312 249.46H336.607L335.087 247.863H467.312V249.46ZM467.312 237.116H324.856L323.336 235.52H467.312V237.116ZM467.312 224.773H313.106L311.587 223.177H467.312V224.773ZM467.312 212.431H301.356L299.837 210.834H467.312V212.431ZM467.312 200.087H289.605L288.086 198.49H467.312V200.087ZM467.312 187.744H277.856L276.336 186.147H467.312V187.744ZM467.312 175.401H266.106L264.585 173.804H467.312V175.401ZM467.312 163.058H254.355L252.835 161.461H467.312V163.058ZM467.312 150.715H242.605L241.086 149.118H467.312V150.715ZM467.312 138.372H241.084L242.604 136.774H467.312V138.372ZM467.312 126.028H252.835L254.354 124.432H467.312V126.028ZM467.312 113.686H264.585L266.104 112.089H467.312V113.686ZM467.312 101.342H276.335L277.855 99.7451H467.312V101.342ZM467.312 88.999H288.085L289.605 87.4023H467.312V88.999ZM467.312 76.6562H299.835L301.355 75.0596H467.312V76.6562ZM467.312 64.3125H311.586L313.106 62.7158H467.312V64.3125ZM467.312 51.9697H323.336L324.856 50.373H467.312V51.9697ZM467.312 39.627H335.086L336.606 38.0293H467.312V39.627ZM467.312 27.2832H346.837L348.356 25.6865H467.312V27.2832ZM467.312 14.9404H358.587L360.106 13.3438H467.312V14.9404ZM467.312 2.59766H370.337L371.857 1H467.312V2.59766Z" fill="white"/>
<path d="M467.312 286.489V286.989H467.812V286.489H467.312ZM371.857 286.489L371.495 286.834L371.643 286.989H371.857V286.489ZM370.338 284.893V284.393H369.172L369.976 285.237L370.338 284.893ZM467.312 284.893H467.812V284.393H467.312V284.893ZM467.312 274.146V274.646H467.812V274.146H467.312ZM360.107 274.146L359.745 274.491L359.893 274.646H360.107V274.146ZM358.587 272.549V272.049H357.421L358.225 272.894L358.587 272.549ZM467.312 272.549H467.812V272.049H467.312V272.549ZM467.312 261.803V262.303H467.812V261.803H467.312ZM348.356 261.803L347.994 262.147L348.142 262.303H348.356V261.803ZM346.837 260.206V259.706H345.671L346.475 260.551L346.837 260.206ZM467.312 260.206H467.812V259.706H467.312V260.206ZM467.312 249.46V249.96H467.812V249.46H467.312ZM336.607 249.46L336.245 249.805L336.393 249.96H336.607V249.46ZM335.087 247.863V247.363H333.92L334.725 248.208L335.087 247.863ZM467.312 247.863H467.812V247.363H467.312V247.863ZM467.312 237.116V237.616H467.812V237.116H467.312ZM324.856 237.116L324.494 237.461L324.642 237.616H324.856V237.116ZM323.336 235.52V235.02H322.169L322.974 235.864L323.336 235.52ZM467.312 235.52H467.812V235.02H467.312V235.52ZM467.312 224.773V225.273H467.812V224.773H467.312ZM313.106 224.773L312.744 225.118L312.892 225.273H313.106V224.773ZM311.587 223.177V222.677H310.421L311.225 223.521L311.587 223.177ZM467.312 223.177H467.812V222.677H467.312V223.177ZM467.312 212.431V212.931H467.812V212.431H467.312ZM301.356 212.431L300.994 212.775L301.142 212.931H301.356V212.431ZM299.837 210.834V210.334H298.671L299.475 211.179L299.837 210.834ZM467.312 210.834H467.812V210.334H467.312V210.834ZM467.312 200.087V200.587H467.812V200.087H467.312ZM289.605 200.087L289.243 200.432L289.391 200.587H289.605V200.087ZM288.086 198.49V197.99H286.92L287.724 198.835L288.086 198.49ZM467.312 198.49H467.812V197.99H467.312V198.49ZM467.312 187.744V188.244H467.812V187.744H467.312ZM277.856 187.744L277.494 188.089L277.642 188.244H277.856V187.744ZM276.336 186.147V185.647H275.169L275.974 186.492L276.336 186.147ZM467.312 186.147H467.812V185.647H467.312V186.147ZM467.312 175.401V175.901H467.812V175.401H467.312ZM266.106 175.401L265.744 175.746L265.892 175.901H266.106V175.401ZM264.585 173.804V173.304H263.418L264.223 174.149L264.585 173.804ZM467.312 173.804H467.812V173.304H467.312V173.804ZM467.312 163.058V163.558H467.812V163.058H467.312ZM254.355 163.058L253.993 163.402L254.141 163.558H254.355V163.058ZM252.835 161.461V160.961H251.668L252.473 161.806L252.835 161.461ZM467.312 161.461H467.812V160.961H467.312V161.461ZM467.312 150.715V151.215H467.812V150.715H467.312ZM242.605 150.715L242.243 151.06L242.391 151.215H242.605V150.715ZM241.086 149.118V148.618H239.92L240.724 149.463L241.086 149.118ZM467.312 149.118H467.812V148.618H467.312V149.118ZM467.312 138.372V138.872H467.812V138.372H467.312ZM241.084 138.372L240.722 138.027L239.918 138.872H241.084V138.372ZM242.604 136.774V136.274H242.39L242.242 136.43L242.604 136.774ZM467.312 136.774H467.812V136.274H467.312V136.774ZM467.312 126.028V126.528H467.812V126.028H467.312ZM252.835 126.028L252.473 125.684L251.669 126.528H252.835V126.028ZM254.354 124.432V123.932H254.14L253.992 124.087L254.354 124.432ZM467.312 124.432H467.812V123.932H467.312V124.432ZM467.312 113.686V114.186H467.812V113.686H467.312ZM264.585 113.686L264.223 113.341L263.419 114.186H264.585V113.686ZM266.104 112.089V111.589H265.89L265.742 111.744L266.104 112.089ZM467.312 112.089H467.812V111.589H467.312V112.089ZM467.312 101.342V101.842H467.812V101.342H467.312ZM276.335 101.342L275.973 100.997L275.168 101.842H276.335V101.342ZM277.855 99.7451V99.2451H277.641L277.493 99.4003L277.855 99.7451ZM467.312 99.7451H467.812V99.2451H467.312V99.7451ZM467.312 88.999V89.499H467.812V88.999H467.312ZM288.085 88.999L287.723 88.6542L286.918 89.499H288.085V88.999ZM289.605 87.4023V86.9023H289.391L289.243 87.0575L289.605 87.4023ZM467.312 87.4023H467.812V86.9023H467.312V87.4023ZM467.312 76.6562V77.1562H467.812V76.6562H467.312ZM299.835 76.6562L299.473 76.3114L298.668 77.1562H299.835V76.6562ZM301.355 75.0596V74.5596H301.141L300.993 74.7148L301.355 75.0596ZM467.312 75.0596H467.812V74.5596H467.312V75.0596ZM467.312 64.3125V64.8125H467.812V64.3125H467.312ZM311.586 64.3125L311.224 63.9677L310.419 64.8125H311.586V64.3125ZM313.106 62.7158V62.2158H312.892L312.744 62.371L313.106 62.7158ZM467.312 62.7158H467.812V62.2158H467.312V62.7158ZM467.312 51.9697V52.4697H467.812V51.9697H467.312ZM323.336 51.9697L322.974 51.6249L322.169 52.4697H323.336V51.9697ZM324.856 50.373V49.873H324.642L324.494 50.0282L324.856 50.373ZM467.312 50.373H467.812V49.873H467.312V50.373ZM467.312 39.627V40.127H467.812V39.627H467.312ZM335.086 39.627L334.724 39.2823L333.92 40.127H335.086V39.627ZM336.606 38.0293V37.5293H336.392L336.244 37.6846L336.606 38.0293ZM467.312 38.0293H467.812V37.5293H467.312V38.0293ZM467.312 27.2832V27.7832H467.812V27.2832H467.312ZM346.837 27.2832L346.475 26.9385L345.671 27.7832H346.837V27.2832ZM348.356 25.6865V25.1865H348.142L347.994 25.3418L348.356 25.6865ZM467.312 25.6865H467.812V25.1865H467.312V25.6865ZM467.312 14.9404V15.4404H467.812V14.9404H467.312ZM358.587 14.9404L358.225 14.5957L357.421 15.4404H358.587V14.9404ZM360.106 13.3438V12.8438H359.892L359.744 12.9991L360.106 13.3438ZM467.312 13.3438H467.812V12.8438H467.312V13.3438ZM467.312 2.59766V3.09766H467.812V2.59766H467.312ZM370.337 2.59766L369.975 2.25296L369.171 3.09766H370.337V2.59766ZM371.857 1V0.5H371.643L371.495 0.6553L371.857 1ZM467.312 1H467.812V0.5H467.312V1ZM467.312 286.489V285.989H371.857V286.489V286.989H467.312V286.489ZM371.857 286.489L372.22 286.145L370.7 284.548L370.338 284.893L369.976 285.237L371.495 286.834L371.857 286.489ZM370.338 284.893V285.393H467.312V284.893V284.393H370.338V284.893ZM467.312 284.893H466.812V286.489H467.312H467.812V284.893H467.312ZM467.312 274.146V273.646H360.107V274.146V274.646H467.312V274.146ZM360.107 274.146L360.47 273.802L358.949 272.204L358.587 272.549L358.225 272.894L359.745 274.491L360.107 274.146ZM358.587 272.549V273.049H467.312V272.549V272.049H358.587V272.549ZM467.312 272.549H466.812V274.146H467.312H467.812V272.549H467.312ZM467.312 261.803V261.303H348.356V261.803V262.303H467.312V261.803ZM348.356 261.803L348.719 261.458L347.199 259.861L346.837 260.206L346.475 260.551L347.994 262.147L348.356 261.803ZM346.837 260.206V260.706H467.312V260.206V259.706H346.837V260.206ZM467.312 260.206H466.812V261.803H467.312H467.812V260.206H467.312ZM467.312 249.46V248.96H336.607V249.46V249.96H467.312V249.46ZM336.607 249.46L336.97 249.115L335.449 247.518L335.087 247.863L334.725 248.208L336.245 249.805L336.607 249.46ZM335.087 247.863V248.363H467.312V247.863V247.363H335.087V247.863ZM467.312 247.863H466.812V249.46H467.312H467.812V247.863H467.312ZM467.312 237.116V236.616H324.856V237.116V237.616H467.312V237.116ZM324.856 237.116L325.219 236.771L323.698 235.175L323.336 235.52L322.974 235.864L324.494 237.461L324.856 237.116ZM323.336 235.52V236.02H467.312V235.52V235.02H323.336V235.52ZM467.312 235.52H466.812V237.116H467.312H467.812V235.52H467.312ZM467.312 224.773V224.273H313.106V224.773V225.273H467.312V224.773ZM313.106 224.773L313.469 224.429L311.949 222.832L311.587 223.177L311.225 223.521L312.744 225.118L313.106 224.773ZM311.587 223.177V223.677H467.312V223.177V222.677H311.587V223.177ZM467.312 223.177H466.812V224.773H467.312H467.812V223.177H467.312ZM467.312 212.431V211.931H301.356V212.431V212.931H467.312V212.431ZM301.356 212.431L301.719 212.086L300.199 210.489L299.837 210.834L299.475 211.179L300.994 212.775L301.356 212.431ZM299.837 210.834V211.334H467.312V210.834V210.334H299.837V210.834ZM467.312 210.834H466.812V212.431H467.312H467.812V210.834H467.312ZM467.312 200.087V199.587H289.605V200.087V200.587H467.312V200.087ZM289.605 200.087L289.968 199.742L288.448 198.146L288.086 198.49L287.724 198.835L289.243 200.432L289.605 200.087ZM288.086 198.49V198.99H467.312V198.49V197.99H288.086V198.49ZM467.312 198.49H466.812V200.087H467.312H467.812V198.49H467.312ZM467.312 187.744V187.244H277.856V187.744V188.244H467.312V187.744ZM277.856 187.744L278.219 187.399L276.698 185.803L276.336 186.147L275.974 186.492L277.494 188.089L277.856 187.744ZM276.336 186.147V186.647H467.312V186.147V185.647H276.336V186.147ZM467.312 186.147H466.812V187.744H467.312H467.812V186.147H467.312ZM467.312 175.401V174.901H266.106V175.401V175.901H467.312V175.401ZM266.106 175.401L266.469 175.057L264.947 173.459L264.585 173.804L264.223 174.149L265.744 175.746L266.106 175.401ZM264.585 173.804V174.304H467.312V173.804V173.304H264.585V173.804ZM467.312 173.804H466.812V175.401H467.312H467.812V173.804H467.312ZM467.312 163.058V162.558H254.355V163.058V163.558H467.312V163.058ZM254.355 163.058L254.718 162.713L253.197 161.116L252.835 161.461L252.473 161.806L253.993 163.402L254.355 163.058ZM252.835 161.461V161.961H467.312V161.461V160.961H252.835V161.461ZM467.312 161.461H466.812V163.058H467.312H467.812V161.461H467.312ZM467.312 150.715V150.215H242.605V150.715V151.215H467.312V150.715ZM242.605 150.715L242.968 150.37L241.448 148.773L241.086 149.118L240.724 149.463L242.243 151.06L242.605 150.715ZM241.086 149.118V149.618H467.312V149.118V148.618H241.086V149.118ZM467.312 149.118H466.812V150.715H467.312H467.812V149.118H467.312ZM467.312 138.372V137.872H241.084V138.372V138.872H467.312V138.372ZM241.084 138.372L241.446 138.717L242.967 137.119L242.604 136.774L242.242 136.43L240.722 138.027L241.084 138.372ZM242.604 136.774V137.274H467.312V136.774V136.274H242.604V136.774ZM467.312 136.774H466.812V138.372H467.312H467.812V136.774H467.312ZM467.312 126.028V125.528H252.835V126.028V126.528H467.312V126.028ZM252.835 126.028L253.197 126.373L254.717 124.776L254.354 124.432L253.992 124.087L252.473 125.684L252.835 126.028ZM254.354 124.432V124.932H467.312V124.432V123.932H254.354V124.432ZM467.312 124.432H466.812V126.028H467.312H467.812V124.432H467.312ZM467.312 113.686V113.186H264.585V113.686V114.186H467.312V113.686ZM264.585 113.686L264.947 114.03L266.467 112.434L266.104 112.089L265.742 111.744L264.223 113.341L264.585 113.686ZM266.104 112.089V112.589H467.312V112.089V111.589H266.104V112.089ZM467.312 112.089H466.812V113.686H467.312H467.812V112.089H467.312ZM467.312 101.342V100.842H276.335V101.342V101.842H467.312V101.342ZM276.335 101.342L276.697 101.687L278.218 100.09L277.855 99.7451L277.493 99.4003L275.973 100.997L276.335 101.342ZM277.855 99.7451V100.245H467.312V99.7451V99.2451H277.855V99.7451ZM467.312 99.7451H466.812V101.342H467.312H467.812V99.7451H467.312ZM467.312 88.999V88.499H288.085V88.999V89.499H467.312V88.999ZM288.085 88.999L288.447 89.3438L289.968 87.7472L289.605 87.4023L289.243 87.0575L287.723 88.6542L288.085 88.999ZM289.605 87.4023V87.9023H467.312V87.4023V86.9023H289.605V87.4023ZM467.312 87.4023H466.812V88.999H467.312H467.812V87.4023H467.312ZM467.312 76.6562V76.1562H299.835V76.6562V77.1562H467.312V76.6562ZM299.835 76.6562L300.197 77.0011L301.718 75.4044L301.355 75.0596L300.993 74.7148L299.473 76.3114L299.835 76.6562ZM301.355 75.0596V75.5596H467.312V75.0596V74.5596H301.355V75.0596ZM467.312 75.0596H466.812V76.6562H467.312H467.812V75.0596H467.312ZM467.312 64.3125V63.8125H311.586V64.3125V64.8125H467.312V64.3125ZM311.586 64.3125L311.948 64.6573L313.469 63.0606L313.106 62.7158L312.744 62.371L311.224 63.9677L311.586 64.3125ZM313.106 62.7158V63.2158H467.312V62.7158V62.2158H313.106V62.7158ZM467.312 62.7158H466.812V64.3125H467.312H467.812V62.7158H467.312ZM467.312 51.9697V51.4697H323.336V51.9697V52.4697H467.312V51.9697ZM323.336 51.9697L323.698 52.3145L325.219 50.7179L324.856 50.373L324.494 50.0282L322.974 51.6249L323.336 51.9697ZM324.856 50.373V50.873H467.312V50.373V49.873H324.856V50.373ZM467.312 50.373H466.812V51.9697H467.312H467.812V50.373H467.312ZM467.312 39.627V39.127H335.086V39.627V40.127H467.312V39.627ZM335.086 39.627L335.448 39.9717L336.969 38.374L336.606 38.0293L336.244 37.6846L334.724 39.2823L335.086 39.627ZM336.606 38.0293V38.5293H467.312V38.0293V37.5293H336.606V38.0293ZM467.312 38.0293H466.812V39.627H467.312H467.812V38.0293H467.312ZM467.312 27.2832V26.7832H346.837V27.2832V27.7832H467.312V27.2832ZM346.837 27.2832L347.199 27.6279L348.719 26.0312L348.356 25.6865L347.994 25.3418L346.475 26.9385L346.837 27.2832ZM348.356 25.6865V26.1865H467.312V25.6865V25.1865H348.356V25.6865ZM467.312 25.6865H466.812V27.2832H467.312H467.812V25.6865H467.312ZM467.312 14.9404V14.4404H358.587V14.9404V15.4404H467.312V14.9404ZM358.587 14.9404L358.949 15.2851L360.469 13.6884L360.106 13.3438L359.744 12.9991L358.225 14.5957L358.587 14.9404ZM360.106 13.3438V13.8438H467.312V13.3438V12.8438H360.106V13.3438ZM467.312 13.3438H466.812V14.9404H467.312H467.812V13.3438H467.312ZM467.312 2.59766V2.09766H370.337V2.59766V3.09766H467.312V2.59766ZM370.337 2.59766L370.699 2.94236L372.22 1.3447L371.857 1L371.495 0.6553L369.975 2.25296L370.337 2.59766ZM371.857 1V1.5H467.312V1V0.5H371.857V1ZM467.312 1H466.812V2.59766H467.312H467.812V1H467.312Z" fill="white"/>
</svg>
