<svg width="468" height="287" viewBox="0 0 468 287" fill="none" xmlns="http://www.w3.org/2000/svg">
<g opacity="0.5">
<path d="M467.525 286.489H219.773L218.254 284.893H467.525V286.489ZM467.525 274.146H208.023L206.503 272.549H467.525V274.146ZM467.525 261.803H196.272L194.753 260.206H467.525V261.803ZM467.525 249.46H184.523L183.003 247.863H467.525V249.46ZM467.525 237.116H172.772L171.252 235.52H467.525V237.116ZM467.525 224.773H161.022L159.503 223.177H467.525V224.773ZM467.525 212.431H149.272L147.753 210.834H467.525V212.431ZM467.525 200.087H137.521L136.002 198.49H467.525V200.087ZM467.525 187.744H125.772L124.252 186.147H467.525V187.744ZM467.525 175.401H114.022L112.501 173.804H467.525V175.401ZM467.525 163.058H102.271L100.751 161.461H467.525V163.058ZM467.525 150.715H90.5215L89.002 149.118H467.525V150.715ZM467.525 138.372H89L90.5205 136.774H467.525V138.372ZM467.525 126.028H100.751L102.271 124.432H467.525V126.028ZM467.525 113.686H112.501L114.021 112.089H467.525V113.686ZM467.525 101.342H124.251L125.771 99.7451H467.525V101.342ZM467.525 88.999H136.001L137.521 87.4023H467.525V88.999ZM467.525 76.6562H147.751L149.271 75.0596H467.525V76.6562ZM467.525 64.3125H159.502L161.022 62.7158H467.525V64.3125ZM467.525 51.9697H171.252L172.772 50.373H467.525V51.9697ZM467.525 39.627H183.002L184.522 38.0293H467.525V39.627ZM467.525 27.2832H194.753L196.272 25.6865H467.525V27.2832ZM467.525 14.9404H206.503L208.022 13.3438H467.525V14.9404ZM467.525 2.59766H218.253L219.773 1H467.525V2.59766Z" fill="white"/>
<path d="M467.525 286.489V286.888H467.925V286.489H467.525ZM219.773 286.489L219.484 286.764L219.602 286.888H219.773V286.489ZM218.254 284.893V284.493H217.323L217.965 285.168L218.254 284.893ZM467.525 284.893H467.925V284.493H467.525V284.893ZM467.525 274.146V274.546H467.925V274.146H467.525ZM208.023 274.146L207.734 274.422L207.852 274.546H208.023V274.146ZM206.503 272.549V272.15H205.572L206.214 272.824L206.503 272.549ZM467.525 272.549H467.925V272.15H467.525V272.549ZM467.525 261.803V262.202H467.925V261.803H467.525ZM196.272 261.803L195.983 262.078L196.101 262.202H196.272V261.803ZM194.753 260.206V259.807H193.822L194.464 260.481L194.753 260.206ZM467.525 260.206H467.925V259.807H467.525V260.206ZM467.525 249.46V249.859H467.925V249.46H467.525ZM184.523 249.46L184.234 249.735L184.352 249.859H184.523V249.46ZM183.003 247.863V247.464H182.071L182.714 248.139L183.003 247.863ZM467.525 247.863H467.925V247.464H467.525V247.863ZM467.525 237.116V237.515H467.925V237.116H467.525ZM172.772 237.116L172.483 237.392L172.601 237.515H172.772V237.116ZM171.252 235.52V235.12H170.321L170.963 235.795L171.252 235.52ZM467.525 235.52H467.925V235.12H467.525V235.52ZM467.525 224.773V225.173H467.925V224.773H467.525ZM161.022 224.773L160.733 225.049L160.851 225.173H161.022V224.773ZM159.503 223.177V222.778H158.572L159.214 223.452L159.503 223.177ZM467.525 223.177H467.925V222.778H467.525V223.177ZM467.525 212.431V212.83H467.925V212.431H467.525ZM149.272 212.431L148.983 212.706L149.101 212.83H149.272V212.431ZM147.753 210.834V210.435H146.822L147.464 211.109L147.753 210.834ZM467.525 210.834H467.925V210.435H467.525V210.834ZM467.525 200.087V200.486H467.925V200.087H467.525ZM137.521 200.087L137.232 200.362L137.35 200.486H137.521V200.087ZM136.002 198.49V198.091H135.071L135.713 198.765L136.002 198.49ZM467.525 198.49H467.925V198.091H467.525V198.49ZM467.525 187.744V188.143H467.925V187.744H467.525ZM125.772 187.744L125.483 188.019L125.601 188.143H125.772V187.744ZM124.252 186.147V185.748H123.321L123.963 186.423L124.252 186.147ZM467.525 186.147H467.925V185.748H467.525V186.147ZM467.525 175.401V175.801H467.925V175.401H467.525ZM114.022 175.401L113.733 175.677L113.851 175.801H114.022V175.401ZM112.501 173.804V173.404H111.57L112.212 174.079L112.501 173.804ZM467.525 173.804H467.925V173.404H467.525V173.804ZM467.525 163.058V163.457H467.925V163.058H467.525ZM102.271 163.058L101.982 163.333L102.1 163.457H102.271V163.058ZM100.751 161.461V161.062H99.8195L100.462 161.736L100.751 161.461ZM467.525 161.461H467.925V161.062H467.525V161.461ZM467.525 150.715V151.114H467.925V150.715H467.525ZM90.5215 150.715L90.2323 150.99L90.3503 151.114H90.5215V150.715ZM89.002 149.118V148.719H88.0709L88.7128 149.393L89.002 149.118ZM467.525 149.118H467.925V148.719H467.525V149.118ZM467.525 138.372V138.771H467.925V138.372H467.525ZM89 138.372L88.7108 138.097L88.0689 138.771H89V138.372ZM90.5205 136.774V136.375H90.3493L90.2313 136.499L90.5205 136.774ZM467.525 136.774H467.925V136.375H467.525V136.774ZM467.525 126.028V126.428H467.925V126.028H467.525ZM100.751 126.028L100.462 125.753L99.8199 126.428H100.751V126.028ZM102.271 124.432V124.032H102.099L101.981 124.156L102.271 124.432ZM467.525 124.432H467.925V124.032H467.525V124.432ZM467.525 113.686V114.085H467.925V113.686H467.525ZM112.501 113.686L112.212 113.41L111.57 114.085H112.501V113.686ZM114.021 112.089V111.69H113.849L113.731 111.814L114.021 112.089ZM467.525 112.089H467.925V111.69H467.525V112.089ZM467.525 101.342V101.741H467.925V101.342H467.525ZM124.251 101.342L123.962 101.066L123.32 101.741H124.251V101.342ZM125.771 99.7451V99.3459H125.6L125.482 99.4698L125.771 99.7451ZM467.525 99.7451H467.925V99.3459H467.525V99.7451ZM467.525 88.999V89.3982H467.925V88.999H467.525ZM136.001 88.999L135.712 88.7237L135.07 89.3982H136.001V88.999ZM137.521 87.4023V87.0031H137.35L137.232 87.127L137.521 87.4023ZM467.525 87.4023H467.925V87.0031H467.525V87.4023ZM467.525 76.6562V77.0555H467.925V76.6562H467.525ZM147.751 76.6562L147.462 76.3809L146.82 77.0555H147.751V76.6562ZM149.271 75.0596V74.6604H149.1L148.982 74.7843L149.271 75.0596ZM467.525 75.0596H467.925V74.6604H467.525V75.0596ZM467.525 64.3125V64.7117H467.925V64.3125H467.525ZM159.502 64.3125L159.213 64.0372L158.571 64.7117H159.502V64.3125ZM161.022 62.7158V62.3166H160.851L160.733 62.4405L161.022 62.7158ZM467.525 62.7158H467.925V62.3166H467.525V62.7158ZM467.525 51.9697V52.3689H467.925V51.9697H467.525ZM171.252 51.9697L170.963 51.6944L170.321 52.3689H171.252V51.9697ZM172.772 50.373V49.9738H172.601L172.483 50.0977L172.772 50.373ZM467.525 50.373H467.925V49.9738H467.525V50.373ZM467.525 39.627V40.0262H467.925V39.627H467.525ZM183.002 39.627L182.713 39.3517L182.071 40.0262H183.002V39.627ZM184.522 38.0293V37.6301H184.351L184.233 37.7541L184.522 38.0293ZM467.525 38.0293H467.925V37.6301H467.525V38.0293ZM467.525 27.2832V27.6824H467.925V27.2832H467.525ZM194.753 27.2832L194.464 27.008L193.822 27.6824H194.753V27.2832ZM196.272 25.6865V25.2873H196.101L195.983 25.4113L196.272 25.6865ZM467.525 25.6865H467.925V25.2873H467.525V25.6865ZM467.525 14.9404V15.3396H467.925V14.9404H467.525ZM206.503 14.9404L206.214 14.6652L205.572 15.3396H206.503V14.9404ZM208.022 13.3438V12.9445H207.851L207.733 13.0685L208.022 13.3438ZM467.525 13.3438H467.925V12.9445H467.525V13.3438ZM467.525 2.59766V2.99687H467.925V2.59766H467.525ZM218.253 2.59766L217.964 2.32244L217.322 2.99687H218.253V2.59766ZM219.773 1V0.600783H219.602L219.484 0.724779L219.773 1ZM467.525 1H467.925V0.600783H467.525V1ZM467.525 286.489V286.09H219.773V286.489V286.888H467.525V286.489ZM219.773 286.489L220.063 286.214L218.543 284.617L218.254 284.893L217.965 285.168L219.484 286.764L219.773 286.489ZM218.254 284.893V285.292H467.525V284.893V284.493H218.254V284.893ZM467.525 284.893H467.126V286.489H467.525H467.925V284.893H467.525ZM467.525 274.146V273.747H208.023V274.146V274.546H467.525V274.146ZM208.023 274.146L208.313 273.871L206.792 272.274L206.503 272.549L206.214 272.824L207.734 274.422L208.023 274.146ZM206.503 272.549V272.948H467.525V272.549V272.15H206.503V272.549ZM467.525 272.549H467.126V274.146H467.525H467.925V272.549H467.525ZM467.525 261.803V261.404H196.272V261.803V262.202H467.525V261.803ZM196.272 261.803L196.562 261.528L195.042 259.931L194.753 260.206L194.464 260.481L195.983 262.078L196.272 261.803ZM194.753 260.206V260.605H467.525V260.206V259.807H194.753V260.206ZM467.525 260.206H467.126V261.803H467.525H467.925V260.206H467.525ZM467.525 249.46V249.061H184.523V249.46V249.859H467.525V249.46ZM184.523 249.46L184.813 249.185L183.292 247.588L183.003 247.863L182.714 248.139L184.234 249.735L184.523 249.46ZM183.003 247.863V248.262H467.525V247.863V247.464H183.003V247.863ZM467.525 247.863H467.126V249.46H467.525H467.925V247.863H467.525ZM467.525 237.116V236.717H172.772V237.116V237.515H467.525V237.116ZM172.772 237.116L173.062 236.841L171.541 235.244L171.252 235.52L170.963 235.795L172.483 237.392L172.772 237.116ZM171.252 235.52V235.919H467.525V235.52V235.12H171.252V235.52ZM467.525 235.52H467.126V237.116H467.525H467.925V235.52H467.525ZM467.525 224.773V224.374H161.022V224.773V225.173H467.525V224.773ZM161.022 224.773L161.312 224.498L159.792 222.902L159.503 223.177L159.214 223.452L160.733 225.049L161.022 224.773ZM159.503 223.177V223.576H467.525V223.177V222.778H159.503V223.177ZM467.525 223.177H467.126V224.773H467.525H467.925V223.177H467.525ZM467.525 212.431V212.031H149.272V212.431V212.83H467.525V212.431ZM149.272 212.431L149.562 212.155L148.042 210.559L147.753 210.834L147.464 211.109L148.983 212.706L149.272 212.431ZM147.753 210.834V211.233H467.525V210.834V210.435H147.753V210.834ZM467.525 210.834H467.126V212.431H467.525H467.925V210.834H467.525ZM467.525 200.087V199.688H137.521V200.087V200.486H467.525V200.087ZM137.521 200.087L137.811 199.812L136.291 198.215L136.002 198.49L135.713 198.765L137.232 200.362L137.521 200.087ZM136.002 198.49V198.889H467.525V198.49V198.091H136.002V198.49ZM467.525 198.49H467.126V200.087H467.525H467.925V198.49H467.525ZM467.525 187.744V187.345H125.772V187.744V188.143H467.525V187.744ZM125.772 187.744L126.062 187.469L124.541 185.872L124.252 186.147L123.963 186.423L125.483 188.019L125.772 187.744ZM124.252 186.147V186.547H467.525V186.147V185.748H124.252V186.147ZM467.525 186.147H467.126V187.744H467.525H467.925V186.147H467.525ZM467.525 175.401V175.002H114.022V175.401V175.801H467.525V175.401ZM114.022 175.401L114.312 175.126L112.79 173.528L112.501 173.804L112.212 174.079L113.733 175.677L114.022 175.401ZM112.501 173.804V174.203H467.525V173.804V173.404H112.501V173.804ZM467.525 173.804H467.126V175.401H467.525H467.925V173.804H467.525ZM467.525 163.058V162.658H102.271V163.058V163.457H467.525V163.058ZM102.271 163.058L102.561 162.782L101.04 161.186L100.751 161.461L100.462 161.736L101.982 163.333L102.271 163.058ZM100.751 161.461V161.86H467.525V161.461V161.062H100.751V161.461ZM467.525 161.461H467.126V163.058H467.525H467.925V161.461H467.525ZM467.525 150.715V150.316H90.5215V150.715V151.114H467.525V150.715ZM90.5215 150.715L90.8107 150.44L89.2911 148.843L89.002 149.118L88.7128 149.393L90.2323 150.99L90.5215 150.715ZM89.002 149.118V149.517H467.525V149.118V148.719H89.002V149.118ZM467.525 149.118H467.126V150.715H467.525H467.925V149.118H467.525ZM467.525 138.372V137.973H89V138.372V138.771H467.525V138.372ZM89 138.372L89.2892 138.647L90.8097 137.05L90.5205 136.774L90.2313 136.499L88.7108 138.097L89 138.372ZM90.5205 136.774V137.174H467.525V136.774V136.375H90.5205V136.774ZM467.525 136.774H467.126V138.372H467.525H467.925V136.774H467.525ZM467.525 126.028V125.629H100.751V126.028V126.428H467.525V126.028ZM100.751 126.028L101.04 126.304L102.56 124.707L102.271 124.432L101.981 124.156L100.462 125.753L100.751 126.028ZM102.271 124.432V124.831H467.525V124.432V124.032H102.271V124.432ZM467.525 124.432H467.126V126.028H467.525H467.925V124.432H467.525ZM467.525 113.686V113.286H112.501V113.686V114.085H467.525V113.686ZM112.501 113.686L112.79 113.961L114.31 112.364L114.021 112.089L113.731 111.814L112.212 113.41L112.501 113.686ZM114.021 112.089V112.488H467.525V112.089V111.69H114.021V112.089ZM467.525 112.089H467.126V113.686H467.525H467.925V112.089H467.525ZM467.525 101.342V100.943H124.251V101.342V101.741H467.525V101.342ZM124.251 101.342L124.54 101.617L126.061 100.02L125.771 99.7451L125.482 99.4698L123.962 101.066L124.251 101.342ZM125.771 99.7451V100.144H467.525V99.7451V99.3459H125.771V99.7451ZM467.525 99.7451H467.126V101.342H467.525H467.925V99.7451H467.525ZM467.525 88.999V88.5998H136.001V88.999V89.3982H467.525V88.999ZM136.001 88.999L136.29 89.2743L137.811 87.6777L137.521 87.4023L137.232 87.127L135.712 88.7237L136.001 88.999ZM137.521 87.4023V87.8016H467.525V87.4023V87.0031H137.521V87.4023ZM467.525 87.4023H467.126V88.999H467.525H467.925V87.4023H467.525ZM467.525 76.6562V76.257H147.751V76.6562V77.0555H467.525V76.6562ZM147.751 76.6562L148.04 76.9316L149.561 75.3349L149.271 75.0596L148.982 74.7843L147.462 76.3809L147.751 76.6562ZM149.271 75.0596V75.4588H467.525V75.0596V74.6604H149.271V75.0596ZM467.525 75.0596H467.126V76.6562H467.525H467.925V75.0596H467.525ZM467.525 64.3125V63.9133H159.502V64.3125V64.7117H467.525V64.3125ZM159.502 64.3125L159.791 64.5878L161.312 62.9911L161.022 62.7158L160.733 62.4405L159.213 64.0372L159.502 64.3125ZM161.022 62.7158V63.115H467.525V62.7158V62.3166H161.022V62.7158ZM467.525 62.7158H467.126V64.3125H467.525H467.925V62.7158H467.525ZM467.525 51.9697V51.5705H171.252V51.9697V52.3689H467.525V51.9697ZM171.252 51.9697L171.541 52.245L173.062 50.6484L172.772 50.373L172.483 50.0977L170.963 51.6944L171.252 51.9697ZM172.772 50.373V50.7723H467.525V50.373V49.9738H172.772V50.373ZM467.525 50.373H467.126V51.9697H467.525H467.925V50.373H467.525ZM467.525 39.627V39.2277H183.002V39.627V40.0262H467.525V39.627ZM183.002 39.627L183.291 39.9022L184.812 38.3045L184.522 38.0293L184.233 37.7541L182.713 39.3517L183.002 39.627ZM184.522 38.0293V38.4285H467.525V38.0293V37.6301H184.522V38.0293ZM467.525 38.0293H467.126V39.627H467.525H467.925V38.0293H467.525ZM467.525 27.2832V26.884H194.753V27.2832V27.6824H467.525V27.2832ZM194.753 27.2832L195.042 27.5584L196.562 25.9617L196.272 25.6865L195.983 25.4113L194.464 27.008L194.753 27.2832ZM196.272 25.6865V26.0857H467.525V25.6865V25.2873H196.272V25.6865ZM467.525 25.6865H467.126V27.2832H467.525H467.925V25.6865H467.525ZM467.525 14.9404V14.5412H206.503V14.9404V15.3396H467.525V14.9404ZM206.503 14.9404L206.792 15.2156L208.312 13.619L208.022 13.3438L207.733 13.0685L206.214 14.6652L206.503 14.9404ZM208.022 13.3438V13.743H467.525V13.3438V12.9445H208.022V13.3438ZM467.525 13.3438H467.126V14.9404H467.525H467.925V13.3438H467.525ZM467.525 2.59766V2.19844H218.253V2.59766V2.99687H467.525V2.59766ZM218.253 2.59766L218.542 2.87288L220.063 1.27522L219.773 1L219.484 0.724779L217.964 2.32244L218.253 2.59766ZM219.773 1V1.39922H467.525V1V0.600783H219.773V1ZM467.525 1H467.126V2.59766H467.525H467.925V1H467.525Z" fill="white"/>
</g>
</svg>
