<svg width="467" height="286" viewBox="0 0 467 286" fill="none" xmlns="http://www.w3.org/2000/svg">
<path d="M466 284.691H1.10865e-05M466 272.348H1.10865e-05M466 260.004H1.10865e-05M466 247.661H1.10865e-05M466 235.318H1.10865e-05M466 222.975H1.10865e-05M466 210.632H1.10865e-05M466 198.289H1.10865e-05M466 185.946H1.10865e-05M466 173.603H1.10865e-05M466 161.259H1.10865e-05M466 148.916H1.10865e-05M466 136.573H1.10865e-05M466 124.23H1.10865e-05M466 111.887H1.10865e-05M466 99.5438H1.10865e-05M466 87.2007H1.10865e-05M466 74.8576H1.10865e-05M466 62.5145H1.10865e-05M466 50.1713H1.10865e-05M466 37.8282H1.10865e-05M466 25.4851H1.10865e-05M466 13.142H1.10865e-05M466 0.798828H1.10865e-05" stroke="white" stroke-opacity="0.5" stroke-width="0.65"/>
</svg>
