<svg width="471" height="337" viewBox="0 0 471 337" fill="none" xmlns="http://www.w3.org/2000/svg">
<path d="M0.669922 303.073H0V242.076L0.669922 241.631V303.073ZM11.374 303.073H10.7051V234.969L11.374 234.524V303.073ZM22.0781 303.073H21.4092V227.862L22.0781 227.418V303.073ZM32.7822 303.073H32.1133V220.755L32.7822 220.312V303.073ZM43.4873 303.073H42.8184V213.647L43.4873 213.204V303.073ZM54.1914 303.073H53.5225V206.541L54.1914 206.097V303.073ZM64.8955 303.073H64.2266V199.435L64.8955 198.99V303.073ZM75.6006 303.073H74.9316L74.9307 192.327L75.6006 191.883V303.073ZM86.3047 303.073H85.6357V185.221L86.3047 184.776V303.073ZM97.0088 303.073H96.3398V178.114L97.0088 177.67V303.073ZM107.713 303.073H107.044V171.008L107.713 170.563V303.073ZM118.418 303.073H117.749V163.9L118.418 163.456V303.073ZM129.122 303.073H128.453V156.793L129.122 156.35V303.073ZM139.826 303.073H139.157V149.687L139.826 149.242V303.073ZM150.531 303.073H149.862V142.579L150.531 142.136V303.073ZM161.235 303.073H160.566V135.473L161.235 135.028V303.073ZM171.939 303.073H171.271V128.366L171.939 127.922V303.073ZM182.645 303.073H181.975V121.26L182.644 120.815L182.645 303.073ZM193.349 303.073H192.68V114.152L193.349 113.708V303.073ZM204.053 303.073H203.384V107.046L204.053 106.602V303.073ZM214.757 303.073H214.088V99.9385L214.757 99.4951V303.073ZM225.462 303.073H224.793V92.832L225.462 92.3877V303.073ZM236.166 303.073H235.497V85.7246L236.166 85.2812V303.073ZM246.87 303.073H246.201V78.6182L246.87 78.1738V303.073ZM257.575 303.073H256.905V71.5117L257.575 71.0674V303.073ZM268.279 303.073H267.61V64.4043L268.279 63.96V303.073ZM278.983 303.073H278.314V57.2979L278.983 56.8535V303.073ZM289.688 303.073H289.019V50.1914L289.688 49.7471V303.073ZM300.393 303.073H299.724L299.723 43.084L300.393 42.6396V303.073ZM311.097 303.073H310.428V35.9775L311.097 35.5332V303.073ZM321.801 303.073H321.132V28.8701L321.801 28.4268V303.073ZM332.506 303.073H331.836V21.7637L332.506 21.3193V303.073ZM343.21 303.073H342.541V14.6562L343.21 14.2119V303.073ZM353.914 303.073H353.245V7.5498L353.914 7.10547V303.073ZM364.618 303.073H363.949V0.443359L364.617 0L364.618 303.073Z" fill="url(#paint0_linear_223_1714)"/>
<defs>
<linearGradient id="paint0_linear_223_1714" x1="370.164" y1="0" x2="-0.335935" y2="0" gradientUnits="userSpaceOnUse">
<stop stop-color="#F7F7F0"/>
<stop offset="1" stop-color="#1E1E1C"/>
</linearGradient>
</defs>
</svg>
