<svg width="216" height="216" viewBox="0 0 216 216" fill="none" xmlns="http://www.w3.org/2000/svg">
<path d="M103.648 152.754C103.148 152.661 102.835 152.452 102.654 152.102C102.513 151.831 102.497 151.606 102.472 150.201C102.455 149.324 102.5 147.073 102.56 145.195C102.765 139.304 102.946 133.778 103.059 129.944C103.247 123.424 103.292 121.864 103.359 118.922C103.396 117.192 103.448 115.026 103.471 114.11C103.553 110.711 103.655 104.075 103.652 102.08C103.649 99.286 103.515 98.502 102.818 97.0739C102.12 95.6536 100.914 94.6989 99.357 94.3186C99.005 94.2333 98.0193 94.1246 96.9945 94.047C96.0245 93.9849 94.0376 93.8374 92.5747 93.7288C91.1119 93.6279 89.4614 93.5037 88.8981 93.4649C88.3427 93.4261 87.3727 93.3562 86.7469 93.3096C86.1211 93.2631 85.1589 93.1932 84.5957 93.1544C84.0403 93.1156 82.1394 92.9759 80.3715 92.844C78.6114 92.712 75.7249 92.5025 73.957 92.3783C72.1969 92.2541 69.8188 92.0756 68.6767 91.9902C65.4851 91.7574 61.3235 91.4547 60.111 91.3693C59.5086 91.3227 58.5621 91.2529 57.9989 91.2141C57.4435 91.1753 55.9963 91.0666 54.7916 90.9812C53.5869 90.8958 52.1476 90.7872 51.5844 90.7484C51.029 90.7096 49.5818 90.6009 48.3771 90.5155C45.6705 90.3215 42.3068 90.0731 40.9222 89.9722C39.2794 89.8481 37.9026 89.7472 36.6823 89.6618C29.423 89.1495 27.1698 88.7226 26.1986 87.6826C26.0185 87.4963 26.0028 87.411 26.0021 86.8056C26.0012 86.0372 26.1338 85.7112 26.5793 85.4163C27.228 84.9816 28.2839 84.9195 32.2185 85.0825C33.2276 85.1213 35.9575 85.1912 38.2807 85.2378C40.6039 85.2766 43.1226 85.3309 43.8735 85.3542C44.6245 85.3775 46.8303 85.4318 48.7624 85.4706C56.5845 85.6414 70.2341 85.9441 73.3239 86.0139C75.1308 86.0527 78.2831 86.1226 80.3247 86.1691C83.8603 86.239 85.2135 86.27 89.2419 86.3632C95.7187 86.5184 98.8084 86.5572 107.506 86.5572C116.157 86.5572 120.452 86.5106 125.77 86.3632C126.607 86.3399 129.04 86.2856 131.167 86.2467C133.295 86.2002 136.533 86.1303 138.363 86.0915C140.194 86.0527 142.548 85.9984 143.604 85.9751C144.66 85.9518 146.209 85.913 147.045 85.8975C147.882 85.8742 151.809 85.7811 155.767 85.6957C159.725 85.6181 165.231 85.4939 168.008 85.4318C170.784 85.3697 174.852 85.2843 177.042 85.2378C179.24 85.1912 181.86 85.1213 182.869 85.0825C185.912 84.9584 187.335 84.9739 187.953 85.1601C188.642 85.3619 188.994 85.719 189.128 86.3709C189.364 87.4963 188.919 88.0474 187.355 88.5364C185.705 89.0564 183.547 89.3203 177.391 89.7394C176.773 89.7782 175.319 89.8869 174.153 89.9722C171.987 90.1352 166.277 90.5543 162.46 90.826C161.279 90.9114 159.856 91.02 159.293 91.0588C158.737 91.0976 157.783 91.1675 157.181 91.2141C154.577 91.4003 153.779 91.4547 151.745 91.6099C150.564 91.6953 148.664 91.835 147.522 91.9126C146.38 91.998 143.76 92.192 141.695 92.3395C139.63 92.4869 137.479 92.6422 136.924 92.6887C136.361 92.7275 135.391 92.7974 134.773 92.844C134.147 92.8828 133.185 92.9526 132.622 92.9992C132.067 93.0458 131.113 93.1156 130.51 93.1544C129.47 93.2243 128.633 93.2864 126.287 93.4649C125.732 93.5037 123.565 93.6589 121.477 93.8141C116.463 94.1712 116.573 94.1634 116.08 94.2565C115.048 94.4428 114.235 94.8464 113.493 95.5372C112.821 96.1659 112.399 96.8023 112.064 97.6793C111.494 99.1773 111.44 99.7827 111.507 103.632C111.633 110.672 111.806 118.162 111.928 122.105C111.952 122.896 112.009 124.712 112.05 126.141C112.204 131.154 112.56 141.524 112.713 145.428C112.762 146.755 112.811 148.687 112.812 149.735C112.822 151.614 112.915 151.745 112.72 152.125C112.564 152.435 112.449 152.55 112.136 152.705C111.963 152.791 111.65 152.801 111.65 152.801L107.817 152.817C105.713 152.824 103.828 152.793 103.648 152.754Z" fill="black"/>
</svg>
