<svg width="198" height="87" viewBox="0 0 198 87" fill="none" xmlns="http://www.w3.org/2000/svg">
<path d="M93.7249 82.4649C93.1203 82.3516 92.7424 82.0965 92.5252 81.6714C92.3551 81.3408 92.3362 81.0668 92.3079 79.357C92.289 78.2895 92.3457 75.55 92.4213 73.264C92.6763 66.094 92.903 59.3681 93.0447 54.7015C93.2809 46.7664 93.3376 44.8676 93.4226 41.2874C93.4698 39.1808 93.5359 36.5452 93.5643 35.4305C93.6682 31.293 93.8005 23.2162 93.8005 20.7884C93.8005 17.3876 93.6399 16.4335 92.7991 14.6954C91.9584 12.9667 90.5036 11.8047 88.6237 11.3418C88.1986 11.2379 87.0084 11.1057 85.7709 11.0112C84.5995 10.9356 82.2001 10.7562 80.4336 10.6239C78.6671 10.5011 76.6739 10.35 75.9937 10.3027C75.323 10.2555 74.1516 10.1705 73.3959 10.1138C72.6402 10.0571 71.4783 9.9721 70.7981 9.92486C70.1274 9.87763 67.8319 9.70759 65.697 9.547C63.5715 9.38641 60.0857 9.13135 57.9508 8.98021C55.8253 8.82906 52.9536 8.61179 51.5744 8.50788C47.7202 8.22448 42.6946 7.85607 41.2304 7.75216C40.503 7.69548 39.36 7.61046 38.6798 7.56323C38.0091 7.51599 36.2615 7.38374 34.8068 7.27983C33.352 7.17592 31.6138 7.04367 30.9337 6.99643C30.263 6.9492 28.5154 6.81695 27.0606 6.71304C23.7921 6.47687 19.7301 6.17458 18.058 6.05178C16.0743 5.90063 14.4117 5.77783 12.938 5.67392C4.1716 5.05044 1.45099 4.53088 0.279621 3.26505C0.0623501 3.03833 0.043457 2.93442 0.043457 2.19759C0.043457 1.26238 0.204048 0.865623 0.742502 0.506655C1.52657 -0.0223521 2.80185 -0.0979246 7.55346 0.100453C8.77207 0.147686 12.0689 0.232705 14.8745 0.289384C17.6802 0.336617 20.722 0.402743 21.6288 0.431082C22.5357 0.459422 25.1996 0.525548 27.5329 0.57278C36.9795 0.780604 53.4637 1.14902 57.1951 1.23404C59.3772 1.28127 63.1842 1.36629 65.6497 1.42297C69.9196 1.50799 71.5538 1.54578 76.4188 1.65913C84.2405 1.84806 87.9719 1.8953 98.4765 1.8953C108.924 1.8953 114.111 1.83862 120.534 1.65913C121.545 1.63079 124.483 1.56467 127.052 1.51744C129.622 1.46076 133.533 1.37574 135.743 1.3285C137.954 1.28127 140.797 1.21515 142.072 1.18681C143.348 1.15847 145.218 1.11123 146.229 1.09234C147.24 1.064 151.982 0.950642 156.762 0.84673C161.542 0.752265 168.192 0.60112 171.546 0.525548C174.899 0.449975 179.811 0.346063 182.456 0.289384C185.111 0.232705 188.275 0.147686 189.494 0.100453C193.169 -0.0506918 194.888 -0.0317987 195.634 0.194918C196.466 0.440529 196.891 0.87507 197.051 1.66858C197.335 3.03833 196.796 3.70903 194.907 4.30417C192.914 4.93709 190.306 5.25827 182.872 5.76838C182.126 5.81562 180.369 5.94787 178.961 6.05178C176.344 6.25016 169.448 6.76027 164.838 7.0909C163.412 7.19481 161.693 7.32706 161.013 7.3743C160.342 7.42153 159.189 7.50655 158.462 7.56323C155.316 7.78994 154.353 7.85607 151.897 8.045C150.47 8.14891 148.175 8.31895 146.796 8.41342C145.416 8.51733 142.252 8.75349 139.758 8.93298C137.264 9.11246 134.666 9.30139 133.996 9.35807C133.315 9.4053 132.144 9.49032 131.398 9.547C130.642 9.59424 129.48 9.67925 128.8 9.73593C128.129 9.79261 126.977 9.87763 126.249 9.92486C124.993 10.0099 123.982 10.0855 121.148 10.3027C120.478 10.35 117.861 10.5389 115.339 10.7278C109.283 11.1624 109.416 11.1529 108.82 11.2663C107.574 11.493 106.591 11.9842 105.694 12.825C104.881 13.5901 104.371 14.3647 103.965 15.4322C103.275 17.2554 103.209 17.9922 103.285 22.6777C103.426 31.2457 103.625 40.3616 103.767 45.1605C103.795 46.124 103.861 48.3345 103.908 50.0727C104.088 56.1752 104.503 68.7958 104.683 73.5474C104.74 75.1627 104.796 77.5149 104.796 78.7902C104.806 81.0763 104.917 81.2358 104.681 81.6987C104.492 82.0766 104.353 82.2156 103.975 82.4045C103.766 82.509 103.389 82.5216 103.389 82.5216L98.7599 82.5405C96.2188 82.5499 93.9421 82.5121 93.7249 82.4649Z" fill="black"/>
<path d="M95.7564 86.687C94.0161 86.3796 93.1593 85.8581 92.6416 84.7963C92.4542 84.4052 92.2222 83.4086 92.3025 83.3248C92.3293 83.2876 92.4631 83.3528 92.597 83.4645C92.7309 83.5763 93.0611 83.7346 93.3378 83.8277C93.784 83.9675 94.3284 83.9861 98.4785 83.9861C102.709 83.9861 103.173 83.9675 103.717 83.8184C104.048 83.716 104.378 83.567 104.467 83.4645C104.708 83.1851 104.869 83.241 104.797 83.5949C104.449 85.4948 103.494 86.3424 101.299 86.687C100.219 86.8639 96.7203 86.8546 95.7564 86.687Z" fill="black" fill-opacity="0.4"/>
<path d="M90.9317 18.0515C90.2423 17.0031 89.2223 16.7102 84.6323 16.2852C81.1096 15.9546 79.1451 15.7657 78.1629 15.6712C77.5963 15.624 76.6802 15.5295 76.1324 15.4823C75.5846 15.4256 74.6779 15.3406 74.1018 15.2839C72.9213 15.18 72.0996 15.095 69.238 14.8305C61.6164 14.1032 58.1031 13.7726 57.1964 13.6971C56.1103 13.6026 51.7753 13.187 50.0659 13.0264C48.3092 12.8469 47.2231 12.743 45.202 12.5541C43.4454 12.3841 37.8732 11.8646 36.6076 11.7512C35.8993 11.6851 31.8571 11.2978 29.1938 11.0428C28.646 10.9861 25.6994 10.7122 22.6299 10.4288C8.15171 9.0781 8.43504 9.10644 6.38561 8.63415C3.08007 7.88794 0.813421 6.65055 0.14287 5.2337C-0.102684 4.70474 -0.0365738 4.60083 0.378979 4.9031C1.38953 5.61152 3.91118 6.2066 7.47171 6.55609C8.73726 6.67889 12.8456 7.04727 20.6466 7.73681C21.7894 7.84071 22.9416 7.94461 23.1966 7.9635C23.6027 8.01073 25.3499 8.17131 30.0438 8.59637C30.6388 8.6436 31.5738 8.72861 32.1216 8.78528C32.6693 8.83251 33.5854 8.90808 34.1521 8.96475C34.7282 9.01198 36.381 9.15366 37.8354 9.2859C39.2898 9.41814 40.7348 9.55038 41.0465 9.57872C41.3582 9.60706 42.2932 9.69207 43.1243 9.76764C44.692 9.91877 45.9481 10.0227 47.7992 10.1832C48.3942 10.2399 49.5653 10.3438 50.3964 10.4194C51.2275 10.5044 52.9086 10.6555 54.127 10.7594C55.3453 10.8633 57.0075 11.0145 57.8103 11.09C58.6131 11.1656 59.7842 11.2789 60.4075 11.3262C61.0308 11.3829 61.9941 11.4679 62.5608 11.5151C63.7791 11.6284 64.9125 11.7323 67.7741 11.9874C68.9735 12.0913 70.3902 12.2141 70.938 12.2707C76.614 12.7903 81.6762 13.2437 83.499 13.4042C84.7173 13.5081 85.9923 13.6404 86.3323 13.6876C87.8245 13.9049 89.2412 14.4905 89.8929 15.1611C90.3556 15.6429 90.8373 16.5402 91.0545 17.362C91.319 18.3443 91.2812 18.571 90.9317 18.0515Z" fill="black" fill-opacity="0.4"/>
<path d="M105.697 18.0883C105.697 17.7419 106.047 16.5436 106.283 16.0942C106.567 15.5418 107.457 14.7085 108.081 14.3996C108.384 14.2592 108.914 14.0625 109.255 13.9689C110.239 13.6881 110.456 13.66 117.146 13.0795C119.871 12.8361 125.955 12.2931 126.986 12.1994C127.535 12.1433 128.983 12.0122 130.204 11.9092C131.424 11.8062 132.872 11.6845 133.421 11.6283C133.969 11.5815 134.887 11.4973 135.455 11.4411C136.032 11.3943 136.941 11.31 137.489 11.2539C138.038 11.207 139.95 11.0292 141.747 10.8794C143.545 10.7202 146.166 10.4955 147.566 10.3644C148.976 10.2334 150.613 10.0929 151.209 10.0368C151.806 9.98994 153.215 9.85887 154.332 9.75589C155.448 9.6529 157.369 9.48438 158.59 9.38139C159.81 9.27841 161.239 9.14734 161.76 9.10052C162.564 9.01626 168.657 8.47325 172.215 8.16429C172.811 8.11748 173.748 8.03322 174.297 7.97705C174.846 7.92087 175.764 7.83661 176.331 7.7898C177.24 7.7149 182.775 7.22806 187.449 6.80676C190.733 6.51653 191.139 6.46972 193.032 6.1514C194.801 5.85181 196.031 5.4305 196.845 4.86876C197.091 4.69088 197.101 4.69088 197.101 4.86876C197.101 4.96239 196.94 5.29943 196.731 5.59902C195.568 7.39659 191.745 8.81966 186.881 9.28777C186.285 9.34394 185.386 9.4282 184.894 9.47502C184.402 9.52183 183.74 9.58736 183.428 9.61545C183.116 9.64354 182.415 9.70907 181.867 9.75589C181.318 9.81206 180.447 9.89632 179.927 9.94313C178.006 10.1117 172.802 10.5985 171.884 10.6921C171.364 10.7389 170.02 10.87 168.903 10.973C166.652 11.179 166.282 11.2164 164.835 11.3475C163.576 11.4692 162.223 11.6003 160.955 11.7126C160.407 11.7688 158.789 11.9186 157.36 12.0496C155.931 12.1807 154.076 12.3492 153.244 12.4241C152.411 12.5084 150.859 12.6488 149.79 12.7518C147.964 12.9297 147.179 13.0046 144.775 13.2293C142.987 13.3885 141.861 13.5008 140.877 13.5944C140.337 13.6506 136.713 13.9876 132.806 14.3434C125.416 15.0269 124.47 15.1205 122.823 15.2796C122.274 15.3265 120.912 15.4575 119.795 15.5605C109.595 16.4874 108.393 16.6278 107.428 16.9649C106.917 17.1427 106.17 17.5828 106.17 17.7045C106.16 17.7326 106.056 17.8917 105.933 18.0415L105.697 18.3224V18.0883Z" fill="black" fill-opacity="0.4"/>
</svg>
