<svg width="124" height="30" viewBox="0 0 124 30" fill="none" xmlns="http://www.w3.org/2000/svg">
<path d="M58.2653 8.07031V10.7112H52.8185V25H49.8004V10.7112H44.3537V8.07031H58.2653ZM63.3972 23.8211C63.0042 24.2612 62.4855 24.607 61.841 24.8585C61.2122 25.0943 60.5048 25.2122 59.7189 25.2122C58.5085 25.2122 57.5103 24.8742 56.7243 24.1983C55.9384 23.5067 55.5454 22.6264 55.5454 21.5575C55.5454 20.5357 55.8834 19.7105 56.5593 19.0817C57.2352 18.4372 58.2806 17.9656 59.6953 17.6669L63.1142 16.9596V16.7474C63.1142 16.1186 62.9335 15.647 62.5719 15.3326C62.2261 15.0025 61.6995 14.8375 60.9921 14.8375C60.3476 14.8375 59.8289 14.9868 59.4359 15.2855C59.0587 15.5684 58.7836 16.0243 58.6107 16.6531L55.9462 16.04C56.2763 14.9239 56.8973 14.0358 57.809 13.3756C58.7364 12.7154 59.8368 12.3853 61.11 12.3853C62.6505 12.3853 63.8295 12.7547 64.6469 13.4935C65.4643 14.2166 65.873 15.2698 65.873 16.6531V21.9819C65.873 22.3277 65.9516 22.5635 66.1088 22.6893C66.2817 22.815 66.5646 22.8543 66.9576 22.8072V25C65.9516 25.11 65.1577 25.0707 64.5761 24.8821C64.0102 24.6935 63.6173 24.3398 63.3972 23.8211ZM60.1433 22.9486C60.9921 22.9486 61.6995 22.7364 62.2654 22.312C62.8313 21.8876 63.1142 21.3295 63.1142 20.6379V19.1288L60.4498 19.6947C59.6796 19.8676 59.1373 20.0877 58.8229 20.3549C58.5085 20.6222 58.3513 20.9837 58.3513 21.4396C58.3513 21.9112 58.5085 22.2806 58.8229 22.5478C59.153 22.815 59.5931 22.9486 60.1433 22.9486ZM70.6182 25H67.7888V12.6211H70.6182V13.9415C71.0584 13.4385 71.5614 13.0533 72.1273 12.7861C72.7089 12.5189 73.3455 12.3853 74.0372 12.3853C75.3104 12.3853 76.3165 12.794 77.0553 13.6114C77.8098 14.4131 78.1871 15.4898 78.1871 16.8417V25H75.3576V17.6669C75.3576 16.8181 75.169 16.1658 74.7917 15.7099C74.4302 15.254 73.8957 15.0261 73.1883 15.0261C72.4653 15.0261 71.8522 15.2776 71.3492 15.7806C70.8619 16.2836 70.6182 16.936 70.6182 17.7377V25ZM84.5646 25.2594C83.7315 25.2594 82.9613 25.0943 82.2539 24.7642C81.5622 24.4184 80.9728 23.9232 80.4855 23.2787C80.0453 22.6971 79.7074 22.0291 79.4716 21.2745C79.2358 20.5043 79.1179 19.6869 79.1179 18.8223C79.1179 17.9578 79.2358 17.1482 79.4716 16.3937C79.7074 15.6234 80.0453 14.9475 80.4855 14.3659C80.9728 13.7214 81.5622 13.2341 82.2539 12.904C82.9613 12.5582 83.7315 12.3853 84.5646 12.3853C85.3034 12.3853 85.9715 12.5189 86.5688 12.7861C87.1819 13.0533 87.7006 13.4385 88.1251 13.9415V8.07031H90.9545V25H88.1251V23.7032C87.7006 24.2062 87.1819 24.5913 86.5688 24.8585C85.9715 25.1258 85.3034 25.2594 84.5646 25.2594ZM88.1958 19.1996V18.4686C88.1958 17.3683 87.9128 16.4959 87.3469 15.8514C86.7968 15.1912 86.058 14.8611 85.1305 14.8611C84.1402 14.8611 83.3621 15.2147 82.7962 15.9221C82.246 16.6295 81.9709 17.5962 81.9709 18.8223C81.9709 20.0484 82.246 21.0152 82.7962 21.7225C83.3621 22.4299 84.1402 22.7836 85.1305 22.7836C86.0422 22.7836 86.7811 22.4613 87.3469 21.8168C87.9128 21.1566 88.1958 20.2842 88.1958 19.1996ZM97.9746 25.2594C97.0943 25.2594 96.2769 25.1022 95.5224 24.7878C94.7679 24.4577 94.1155 23.994 93.5653 23.3966C93.0466 22.815 92.6458 22.1391 92.3628 21.3688C92.0956 20.5829 91.962 19.734 91.962 18.8223C91.962 17.9578 92.0956 17.1404 92.3628 16.3701C92.6458 15.5841 93.0387 14.9004 93.5418 14.3187C94.0919 13.69 94.7364 13.2105 95.4752 12.8804C96.214 12.5503 97.0079 12.3853 97.8567 12.3853C99.5387 12.3853 100.875 12.9512 101.865 14.0829C102.855 15.199 103.351 16.6688 103.351 18.4922V19.4354H94.6736C94.7836 20.4886 95.1294 21.3217 95.711 21.9347C96.3084 22.5478 97.0629 22.8543 97.9746 22.8543C98.682 22.8543 99.2872 22.6814 99.7902 22.3356C100.309 21.974 100.663 21.4867 100.851 20.8737L103.28 21.7933C102.84 22.8779 102.148 23.7267 101.205 24.3398C100.277 24.9528 99.2007 25.2594 97.9746 25.2594ZM97.8331 14.7667C97.0786 14.7667 96.4341 14.9868 95.8997 15.4269C95.3809 15.8671 95.0194 16.4959 94.815 17.3133H100.498C100.482 16.543 100.238 15.93 99.7666 15.4741C99.295 15.0025 98.6505 14.7667 97.8331 14.7667ZM109.576 15.0261C108.885 15.0261 108.303 15.2776 107.832 15.7806C107.36 16.2836 107.124 16.936 107.124 17.7377V25H104.295V12.6211H107.124V13.9415C107.549 13.4227 108.044 13.0376 108.61 12.7861C109.191 12.5189 109.828 12.3853 110.52 12.3853C111.227 12.3853 111.856 12.5346 112.406 12.8333C112.972 13.1162 113.435 13.5406 113.797 14.1065C114.347 13.5249 114.937 13.0926 115.565 12.8097C116.21 12.5267 116.902 12.3853 117.64 12.3853C118.898 12.3853 119.912 12.794 120.682 13.6114C121.452 14.4288 121.837 15.5055 121.837 16.8417V25H119.008V17.6669C119.008 16.8024 118.827 16.15 118.466 15.7099C118.12 15.254 117.609 15.0261 116.933 15.0261C116.241 15.0261 115.66 15.2776 115.188 15.7806C114.717 16.2836 114.481 16.936 114.481 17.7377V25H111.651V17.6669C111.651 16.8024 111.471 16.15 111.109 15.7099C110.763 15.254 110.252 15.0261 109.576 15.0261Z" fill="black"/>
<rect y="6" width="38" height="21" rx="2" fill="black"/>
<path d="M6.0957 10.915L7.1582 10.9424C7.56601 10.9492 8.00902 10.9587 8.1416 10.9629C8.27323 10.967 8.6594 10.9765 8.99805 10.9834H8.99902C10.372 11.0136 12.7672 11.0667 13.3105 11.0791C13.6278 11.086 14.1816 11.0982 14.54 11.1064L16.1055 11.1416C17.2417 11.169 17.784 11.1758 19.3105 11.1758C20.8288 11.1758 21.5821 11.1677 22.5146 11.1416C22.6625 11.1375 23.0896 11.128 23.4629 11.1211C23.8363 11.1129 24.4043 11.0996 24.7256 11.0928C25.0469 11.0859 25.4609 11.0764 25.6465 11.0723C25.831 11.0682 26.1029 11.0613 26.25 11.0586L27.7812 11.0234H27.7822C28.4769 11.0097 29.4431 10.9875 29.9307 10.9766C30.4183 10.9656 31.1331 10.9506 31.5176 10.9424C31.903 10.9342 32.3616 10.9219 32.5381 10.915C32.8052 10.9041 33.0037 10.8993 33.1494 10.9014C33.2919 10.9034 33.3947 10.9117 33.4639 10.9326L33.5635 10.9727C33.5942 10.9896 33.6219 11.0107 33.6465 11.0361C33.6963 11.0877 33.7248 11.1512 33.7393 11.2227L33.751 11.3076C33.7556 11.391 33.7377 11.4698 33.6816 11.5391C33.6131 11.6236 33.4994 11.6766 33.3594 11.7207C33.0559 11.817 32.6639 11.8646 31.5869 11.9385H31.5859L31.0186 11.9795C30.6379 12.0084 29.6351 12.0828 28.9648 12.1309C28.7588 12.1459 28.5083 12.165 28.4092 12.1719C28.312 12.1787 28.1446 12.191 28.0391 12.1992H28.0381L27.084 12.2695C26.8769 12.2846 26.5426 12.3085 26.3418 12.3223C26.141 12.3374 25.6816 12.3724 25.3193 12.3984C24.9563 12.4246 24.5791 12.4518 24.4824 12.46H24.4814C24.3828 12.4668 24.2118 12.4791 24.1035 12.4873H24.1025C23.9934 12.4941 23.8247 12.5055 23.7266 12.5137L23.7275 12.5146L23.3545 12.543C23.1725 12.5553 23.0259 12.5661 22.6143 12.5977H22.6133C22.5159 12.6045 22.1359 12.6317 21.7695 12.6592H21.7686C20.8842 12.7226 20.9118 12.7213 20.833 12.7363H20.832C20.6692 12.7659 20.5438 12.8288 20.4277 12.9375C20.3214 13.0377 20.255 13.1371 20.2012 13.2783L20.2021 13.2793C20.1541 13.4064 20.1287 13.49 20.1162 13.623C20.1033 13.7615 20.1039 13.9531 20.1094 14.2949C20.13 15.5403 20.1591 16.8655 20.1797 17.5625C20.1838 17.7024 20.1933 18.0236 20.2002 18.2764L20.3125 21.6885C20.3207 21.9236 20.3291 22.2669 20.3291 22.4541C20.3294 22.5363 20.3309 22.5998 20.332 22.6494C20.3332 22.6979 20.334 22.7362 20.334 22.7656C20.334 22.7951 20.3332 22.8223 20.3281 22.8486C20.3226 22.877 20.3132 22.9003 20.3018 22.9229L20.3008 22.9219C20.2852 22.9531 20.2686 22.9834 20.2422 23.0098C20.2157 23.0362 20.1856 23.0537 20.1543 23.0693C20.1236 23.0847 20.0887 23.0911 20.0693 23.0938C20.0582 23.0952 20.0481 23.0962 20.041 23.0967H20.0244L19.3516 23.0996C19.1665 23.1003 18.9909 23.0997 18.8574 23.0977C18.7907 23.0966 18.7336 23.0952 18.6914 23.0938C18.6705 23.093 18.6527 23.0917 18.6387 23.0908C18.6278 23.0901 18.6113 23.0896 18.5986 23.0869V23.0859C18.4901 23.065 18.4053 23.0144 18.3564 22.9189C18.3368 22.8807 18.3274 22.8453 18.3223 22.7891C18.3176 22.7375 18.3155 22.6613 18.3135 22.5391C18.3107 22.381 18.3191 21.9796 18.3301 21.6475C18.3672 20.6052 18.4003 19.6274 18.4209 18.9492C18.4552 17.7958 18.4632 17.5201 18.4756 17C18.4825 16.6937 18.492 16.3105 18.4961 16.1484C18.5112 15.5473 18.5303 14.3744 18.5303 14.0225C18.5303 13.7752 18.5245 13.624 18.5049 13.5049C18.4858 13.3893 18.453 13.3006 18.3945 13.1797C18.2855 12.9559 18.0983 12.8064 17.8535 12.7461V12.7451C17.8004 12.7323 17.6361 12.714 17.4551 12.7002V12.6992C17.2835 12.6881 16.9354 12.6637 16.6797 12.6445V12.6436C16.5512 12.6346 16.4146 12.6258 16.2979 12.6172C16.181 12.6086 16.0845 12.6011 16.0352 12.5977C15.9375 12.5908 15.7663 12.5786 15.6562 12.5703C15.5465 12.5621 15.3778 12.5498 15.2793 12.543C15.1815 12.5361 14.8474 12.5106 14.5371 12.4873C14.2283 12.464 13.7213 12.4272 13.4111 12.4053C13.1021 12.3833 12.6848 12.352 12.4844 12.3369L10.9805 12.2266C10.875 12.2183 10.7089 12.2061 10.6104 12.1992C10.5136 12.1924 10.2568 12.1732 10.0469 12.1582C9.83443 12.143 9.58392 12.1241 9.48438 12.1172H9.4834C9.3864 12.1104 9.13049 12.0911 8.9209 12.0762C8.44565 12.0418 7.85424 11.9973 7.61133 11.9795C7.32307 11.9575 7.08117 11.9399 6.86719 11.9248C6.23052 11.8795 5.80742 11.8377 5.52148 11.7832C5.23795 11.7292 5.06896 11.6596 4.96094 11.543L4.96191 11.542C4.93978 11.5187 4.91715 11.4918 4.90723 11.4463C4.8998 11.4122 4.90039 11.3691 4.90039 11.3193C4.9004 11.248 4.90545 11.1835 4.92871 11.127C4.95383 11.0659 4.99508 11.0241 5.0459 10.9902V10.9912C5.12501 10.9378 5.22107 10.9134 5.37402 10.9043C5.52678 10.8952 5.75116 10.9007 6.0957 10.915Z" fill="#F7F7F0" stroke="#F7F7F0" stroke-width="0.2"/>
</svg>
