<svg width="375" height="375" viewBox="0 0 375 375" fill="none" xmlns="http://www.w3.org/2000/svg">
<path d="M180.65 247.1C181.095 247.155 181.543 247.206 181.991 247.251C182.157 247.268 182.323 247.282 182.489 247.297L176.94 302.656L175.099 302.472L180.65 247.1ZM174.522 246.023C175.121 246.161 175.724 246.289 176.331 246.409L165.018 300.924L164.528 300.823L164.083 300.73L163.696 300.651L163.206 300.549L174.522 246.023ZM188.977 303.132L188.477 303.135L188.127 303.135L188.128 303.136L187.627 303.139L187.128 303.141L186.86 247.539C187.478 247.551 188.095 247.554 188.709 247.547L188.977 303.132ZM168.544 244.314C169.126 244.514 169.712 244.705 170.303 244.888L153.343 297.956L152.866 297.804L152.533 297.697L151.58 297.394L168.544 244.314ZM200.999 302.348L200.501 302.402L200.154 302.44L199.657 302.495L199.16 302.549L193.087 247.332C193.703 247.279 194.317 247.216 194.928 247.145L200.999 302.348ZM162.783 241.988C163.341 242.248 163.903 242.499 164.471 242.743L142.04 293.783L141.125 293.381L141.125 293.381L140.806 293.241L140.348 293.04L162.783 241.988ZM212.872 300.31L212.384 300.416L211.895 300.523L211.894 300.522L211.552 300.597L211.063 300.703L199.263 246.47C199.869 246.352 200.473 246.225 201.073 246.089L212.872 300.31ZM157.302 239.072C157.83 239.389 158.363 239.698 158.901 240L131.238 288.453L130.804 288.205L130.37 287.957L130.37 287.956L130.065 287.784L129.632 287.536L157.302 239.072ZM224.466 297.043L223.992 297.199L223.66 297.309L223.661 297.31L222.711 297.623L205.319 244.959C205.909 244.778 206.495 244.589 207.078 244.391L224.466 297.043ZM152.16 235.6C152.652 235.971 153.151 236.333 153.654 236.689L121.051 282.022L120.646 281.73L120.239 281.438L120.239 281.437L119.955 281.234L119.55 280.942L152.16 235.6ZM235.657 292.581L235.201 292.787L234.882 292.93L234.883 292.931L234.427 293.136L233.972 293.342L211.185 242.817C211.752 242.575 212.316 242.326 212.874 242.067L235.657 292.581ZM147.412 231.614C147.862 232.034 148.32 232.447 148.783 232.853L111.592 274.562L111.219 274.229L110.959 273.997L110.213 273.331L147.412 231.614ZM246.32 286.975L245.888 287.227L245.456 287.48L245.455 287.478L245.154 287.655L244.722 287.907L216.795 240.07C217.335 239.77 217.868 239.46 218.398 239.144L246.32 286.975ZM143.104 227.16C143.509 227.625 143.922 228.084 144.341 228.536L102.966 266.153L102.63 265.783L102.394 265.524L102.394 265.525L102.057 265.154L101.721 264.785L143.104 227.16ZM256.338 280.285L255.934 280.58L255.653 280.787L254.848 281.379L222.092 236.747C222.596 236.392 223.094 236.03 223.587 235.66L256.338 280.285ZM265.603 272.584L265.233 272.921L264.862 273.256L264.862 273.255L264.603 273.491L264.233 273.828L227.012 232.888C227.477 232.482 227.936 232.069 228.388 231.649L265.603 272.584ZM139.284 222.289C139.638 222.792 140.001 223.29 140.371 223.782L95.2635 256.889L94.9682 256.486L94.672 256.082L94.6721 256.081L94.4666 255.802L94.1704 255.398L139.284 222.289ZM135.989 217.048C136.29 217.586 136.598 218.12 136.915 218.648L88.5731 246.871L88.0688 246.007L88.0689 246.006L87.8939 245.706L87.6419 245.274L135.989 217.048ZM274.011 263.957L273.679 264.33L273.346 264.703L273.344 264.702L273.112 264.964L272.779 265.337L231.507 228.532C231.926 228.081 232.34 227.623 232.746 227.158L274.011 263.957ZM133.257 211.499C133.5 212.066 133.752 212.628 134.012 213.186L82.9671 236.208L82.7616 235.752L82.556 235.297L82.5561 235.296L82.4132 234.978L82.2076 234.523L133.257 211.499ZM281.472 254.498L281.18 254.904L280.888 255.31L280.886 255.309L280.683 255.593L280.391 256L235.522 223.728C235.891 223.235 236.254 222.737 236.609 222.232L281.472 254.498ZM131.116 205.696C131.299 206.285 131.492 206.871 131.693 207.453L78.5064 225.018L78.3489 224.543L78.1923 224.068L78.1924 224.067L78.0833 223.736L77.9267 223.262L131.116 205.696ZM287.902 244.312L287.654 244.745L287.406 245.18L287.405 245.178L287.233 245.483L286.985 245.918L239.011 218.526C239.326 217.997 239.634 217.463 239.933 216.923L287.902 244.312ZM129.596 199.702C129.716 200.307 129.845 200.91 129.984 201.509L75.2385 213.422L75.1324 212.934L75.0253 212.445L75.0264 212.444L74.9526 212.104L74.8465 211.616L129.596 199.702ZM293.233 233.508L292.831 234.424L292.83 234.423L292.689 234.743L292.487 235.201L241.931 212.982C242.189 212.423 242.439 211.859 242.68 211.29L293.233 233.508ZM128.71 193.584C128.766 194.199 128.833 194.812 128.908 195.422L73.2018 201.549L73.1475 201.053L73.0923 200.555L73.0924 200.554L73.0545 200.208L72.9993 199.711L128.71 193.584ZM297.405 222.207L297.253 222.683L297.146 223.015L296.994 223.493L296.843 223.968L244.249 207.159C244.446 206.576 244.633 205.988 244.812 205.397L297.405 222.207ZM128.467 187.409C128.459 188.027 128.462 188.643 128.473 189.257L72.4174 189.528L72.4145 189.028L72.4133 188.678L72.4104 188.179L72.4085 187.679L128.467 187.409ZM300.373 210.532L300.272 211.021L300.17 211.51L300.1 211.853L299.997 212.342L245.935 201.122C246.069 200.522 246.195 199.919 246.311 199.312L300.373 210.532ZM302.105 198.61L301.921 200.45L246.979 194.942C247.015 194.637 247.049 194.33 247.079 194.023C247.11 193.716 247.138 193.409 247.164 193.102L302.105 198.61ZM128.863 181.243C128.828 181.548 128.794 181.855 128.763 182.162C128.732 182.469 128.705 182.776 128.679 183.083L72.8929 177.491L73.0774 175.65L128.863 181.243ZM129.887 175.148C129.754 175.749 129.629 176.353 129.514 176.96L74.6249 165.569L74.726 165.079L74.7966 164.737L74.8987 164.248L74.9997 163.758L129.887 175.148ZM302.584 187.073L302.585 187.422L302.588 187.922L302.59 188.422L247.376 188.686C247.383 188.068 247.379 187.451 247.367 186.836L302.581 186.572L302.584 187.073ZM131.538 169.193C131.342 169.776 131.155 170.364 130.978 170.956L77.5924 153.894L77.7451 153.417L77.8969 152.941L78.0039 152.608L78.1557 152.131L131.538 169.193ZM301.851 175.048L301.889 175.395L301.944 175.892L301.998 176.39L247.115 182.424C247.057 181.808 246.99 181.195 246.913 180.585L301.797 174.551L301.851 175.048ZM133.8 163.44C133.545 164.001 133.299 164.566 133.061 165.136L81.7649 142.592L82.1668 141.677L82.1678 141.677L82.3087 141.357L82.5097 140.899L133.8 163.44ZM299.972 163.655L299.97 163.655L300.045 163.996L300.152 164.485L246.195 176.224C246.072 175.619 245.938 175.017 245.797 174.418L299.76 162.678L299.972 163.655ZM136.655 157.956C136.342 158.486 136.037 159.021 135.741 159.563L87.0956 131.789L87.3443 131.354L87.5919 130.921L87.7656 130.617L88.0133 130.183L136.655 157.956ZM296.648 151.557L296.806 152.031L296.804 152.031L296.915 152.363L297.072 152.838L244.621 170.159C244.435 169.57 244.24 168.985 244.036 168.404L296.492 151.082L296.648 151.557ZM140.066 152.795C139.7 153.291 139.341 153.793 138.99 154.3L93.5266 121.602L93.8185 121.197L94.1105 120.79L94.3156 120.507L94.6075 120.101L140.066 152.795ZM292.237 140.348L292.442 140.804L292.441 140.804L292.585 141.122L292.791 141.578L242.417 164.295C242.169 163.73 241.914 163.169 241.649 162.613L292.031 139.892L292.237 140.348ZM143.997 148.018C143.581 148.473 143.172 148.935 142.77 149.403L100.987 112.144L101.32 111.77L101.652 111.397L101.653 111.397L101.887 111.137L102.219 110.763L143.997 148.018ZM286.928 130.093L286.927 130.093L287.103 130.394L287.355 130.826L239.608 158.699C239.302 158.164 238.988 157.634 238.667 157.108L286.424 129.23L286.928 130.093ZM148.404 143.671C147.942 144.082 147.487 144.498 147.039 144.922L109.395 103.517L109.765 103.18L110.135 102.844L110.395 102.609L110.765 102.272L148.404 143.671ZM280.03 119.614L280.326 120.017L280.324 120.018L280.532 120.299L280.827 120.702L236.228 153.433C235.869 152.932 235.501 152.437 235.127 151.948L279.735 119.211L280.03 119.614ZM153.236 139.802C152.735 140.162 152.241 140.53 151.752 140.905L118.661 95.8156L119.063 95.5193L119.344 95.3129L119.747 95.0166L120.15 94.7214L153.236 139.802ZM272.368 110.317L272.604 110.576L272.605 110.576L272.941 110.945L273.277 111.315L232.32 148.55C231.91 148.089 231.493 147.634 231.069 147.187L272.032 109.947L272.368 110.317ZM158.447 136.452C157.912 136.758 157.382 137.073 156.857 137.395L128.678 89.1252L129.109 88.873L129.542 88.621L129.844 88.4452L130.276 88.193L158.447 136.452ZM263.779 101.872L264.04 102.104L264.786 102.77L227.925 144.104C227.47 143.689 227.008 143.281 226.539 142.88L263.406 101.539L263.779 101.872ZM163.983 133.659C163.418 133.908 162.858 134.165 162.302 134.431L139.341 83.5183L139.796 83.3127L140.253 83.1072L140.571 82.9634L141.027 82.7578L163.983 133.659ZM254.353 94.3697L254.759 94.6617L254.758 94.6616L255.042 94.8657L255.448 95.1577L223.092 140.144C222.595 139.779 222.092 139.423 221.584 139.073L253.947 94.0778L254.353 94.3697ZM169.782 131.456C169.195 131.644 168.611 131.842 168.031 132.049L150.531 79.0575L151.006 78.901L151.337 78.7909L152.287 78.4778L169.782 131.456ZM244.194 87.8953L244.497 88.0681L244.932 88.3168L245.366 88.5645L217.873 136.716C217.341 136.406 216.803 136.103 216.261 135.809L243.759 87.6477L244.194 87.8953ZM175.787 129.873C175.182 129.999 174.58 130.134 173.981 130.278L162.126 75.7905L162.614 75.6835L163.103 75.5774L163.445 75.5037L163.934 75.3967L175.787 129.873ZM233.416 82.5181L233.733 82.6579L234.191 82.8588L234.649 83.0608L212.323 133.859C211.762 133.606 211.197 133.363 210.626 133.127L232.958 82.3161L233.416 82.5181ZM181.927 128.929C181.312 128.991 180.7 129.062 180.09 129.142L174 73.7528L174.497 73.6986L174.844 73.6599L175.341 73.6057L175.839 73.5505L181.927 128.929ZM222.132 78.2963L222.609 78.4481L222.608 78.448L222.94 78.555L223.417 78.7068L206.509 131.604C205.925 131.413 205.336 131.231 204.744 131.056L221.656 78.1435L222.132 78.2963ZM188.137 128.634C187.519 128.631 186.902 128.637 186.288 128.653L186.022 72.9686L186.521 72.9657L186.87 72.9643L187.37 72.9614L187.87 72.9595L188.137 128.634ZM210.47 75.2771L210.811 75.3477L210.812 75.3478L211.302 75.4498L211.792 75.551L200.495 129.977C199.894 129.848 199.289 129.728 198.68 129.616L209.979 75.176L210.47 75.2771ZM194.349 128.987C194.184 128.969 194.018 128.951 193.852 128.934C193.404 128.889 192.955 128.85 192.508 128.815L198.059 73.4441L199.899 73.6286L194.349 128.987Z" fill="white"/>
</svg>
