<svg width="471" height="337" viewBox="0 0 471 337" fill="none" xmlns="http://www.w3.org/2000/svg">
<path d="M107.054 336.072H105.046V275.521L107.054 274.188V336.072ZM117.758 336.072H115.751V268.414L117.758 267.082V336.072ZM128.462 336.072H126.455V261.308L128.462 259.975V336.072ZM139.167 336.072H137.159V254.201L139.166 252.868L139.167 336.072ZM149.871 336.072H147.864V247.094L149.871 245.761V336.072ZM160.575 336.072H158.568V239.987L160.575 238.654V336.072ZM171.279 336.072H169.272V232.88L171.279 231.548V336.072ZM181.984 336.072H179.977V225.773L181.984 224.44V336.072ZM192.688 336.072H190.682V218.666L192.688 217.334V336.072ZM203.393 336.072H201.386V211.56L203.393 210.228V336.072ZM214.098 336.072H212.09V204.453L214.098 203.12V336.072ZM224.802 336.072H222.795V197.346L224.802 196.014V336.072ZM235.506 336.072H233.499V190.239L235.506 188.907V336.072ZM246.21 336.072H244.203V183.133L246.21 181.8V336.072ZM256.915 336.072H254.907V176.026L256.915 174.693V336.072ZM267.619 336.072H265.612V168.919L267.619 167.586V336.072ZM278.323 336.072H276.316V161.812L278.323 160.479V336.072ZM289.028 336.072H287.021V154.705L289.028 153.372V336.072ZM299.732 336.072H297.726V147.599L299.732 146.266V336.072ZM310.437 336.072H308.43V140.491L310.437 139.159V336.072ZM321.141 336.072H319.134V133.385L321.141 132.053V336.072ZM331.846 336.072H329.838V126.278L331.846 124.945V336.072ZM342.55 336.072H340.543V119.171L342.55 117.839V336.072ZM353.254 336.072H351.247V112.064L353.254 110.732V336.072ZM363.959 336.072H361.951V104.958L363.959 103.625V336.072ZM374.663 336.072H372.656V97.8506L374.663 96.5186V336.072ZM385.367 336.072H383.36V90.7441L385.367 89.4111V336.072ZM396.071 336.072H394.064V83.6377L396.071 82.3047V336.072ZM406.776 336.072H404.769V76.5303L406.776 75.1973V336.072ZM417.48 336.072H415.474V69.4238L417.48 68.0908V336.072ZM428.185 336.072H426.178V62.3164L428.185 60.9844V336.072ZM438.89 336.072H436.882V55.21L438.89 53.877V336.072ZM449.594 336.072H447.587V48.1025L449.594 46.7705V336.072ZM460.298 336.072H458.291V40.9961L460.298 39.6641V336.072ZM471.002 336.072H468.995V33.8896L471.002 32.5576V336.072Z" fill="white"/>
</svg>
