<svg width="375" height="375" viewBox="0 0 375 375" fill="none" xmlns="http://www.w3.org/2000/svg">
<path opacity="0.75" d="M184.559 278.159L181.735 336.787L180.736 336.739L183.56 278.114C183.892 278.131 184.225 278.146 184.559 278.159ZM182.461 278.054C182.793 278.074 183.126 278.094 183.459 278.11L180.636 336.734L179.637 336.686L182.461 278.054ZM196.234 336.674L195.236 336.73L191.917 278.143C192.25 278.129 192.583 278.112 192.916 278.095L196.234 336.674ZM197.331 336.611L196.832 336.64L196.332 336.668L193.014 278.09C193.347 278.072 193.68 278.052 194.012 278.03L197.331 336.611ZM174.154 277.16C174.483 277.211 174.813 277.26 175.144 277.308L166.206 335.331L165.711 335.256L165.217 335.179L174.154 277.16ZM173.067 276.985C173.396 277.04 173.726 277.093 174.056 277.145L165.118 335.164L164.623 335.088L164.129 335.012L173.067 276.985ZM211.738 334.982L211.245 335.063L210.751 335.144L201.33 277.253C201.66 277.204 201.99 277.153 202.319 277.101L211.738 334.982ZM212.824 334.806L212.331 334.887L211.837 334.967L202.418 277.085C202.748 277.032 203.077 276.978 203.405 276.922L212.824 334.806ZM164.902 275.225C165.224 275.31 165.547 275.394 165.87 275.476L150.912 332.261L150.43 332.134L149.946 332.006L164.902 275.225ZM163.842 274.937C164.163 275.026 164.484 275.113 164.807 275.199L149.85 331.98L149.366 331.854L148.883 331.726L163.842 274.937ZM226.981 331.681L226.017 331.943L210.604 275.382C210.927 275.299 211.249 275.214 211.571 275.127L226.981 331.681ZM228.045 331.392L227.08 331.654L211.669 275.101C211.991 275.013 212.312 274.924 212.633 274.833L228.045 331.392ZM155.906 272.328C156.217 272.447 156.53 272.562 156.843 272.678L136.024 327.608L135.089 327.254L155.906 272.328ZM154.884 271.93C155.193 272.052 155.504 272.173 155.815 272.292L134.998 327.219L134.062 326.864L154.884 271.93ZM241.798 326.803L240.865 327.165L219.63 272.539C219.943 272.422 220.254 272.304 220.565 272.184L241.798 326.803ZM242.822 326.404L241.89 326.767L220.657 272.147C220.968 272.027 221.279 271.905 221.588 271.781L242.822 326.404ZM147.272 268.498C147.569 268.649 147.867 268.799 148.166 268.946L121.707 321.425L120.813 320.976L147.272 268.498ZM146.293 267.994C146.588 268.149 146.884 268.302 147.182 268.453L120.724 320.93L119.83 320.48L146.293 267.994ZM256.021 320.403L255.576 320.633L255.133 320.861L228.308 268.761C228.606 268.612 228.904 268.462 229.2 268.31L256.021 320.403ZM256.999 319.9L256.554 320.129L256.109 320.358L229.288 268.264C229.584 268.111 229.88 267.958 230.175 267.802L256.999 319.9ZM139.087 263.785C139.367 263.966 139.648 264.146 139.93 264.324L108.11 313.779L107.69 313.509L107.27 313.238L139.087 263.785ZM138.168 263.182C138.446 263.366 138.724 263.55 139.004 263.731L107.186 313.185L106.766 312.914L106.345 312.644L138.168 263.182ZM269.498 312.553L269.08 312.827L268.661 313.102L236.539 264.092C236.82 263.912 237.1 263.731 237.379 263.548L269.498 312.553ZM270.419 311.95L270.001 312.225L269.582 312.498L237.463 263.493C237.742 263.31 238.019 263.125 238.296 262.939L270.419 311.95ZM131.442 258.246C131.702 258.456 131.963 258.663 132.225 258.87L95.3896 304.754L95 304.441L94.6094 304.129L131.442 258.246ZM130.591 257.551C130.848 257.764 131.107 257.975 131.366 258.185L94.5332 304.066L94.1426 303.753L93.752 303.44L130.591 257.551ZM282.082 303.335L281.694 303.651L281.308 303.969L244.237 258.584C244.498 258.376 244.757 258.166 245.016 257.955L282.082 303.335ZM282.932 302.64L282.544 302.957L282.157 303.272L245.092 257.894C245.35 257.683 245.607 257.471 245.862 257.257L282.932 302.64ZM124.419 251.944C124.655 252.18 124.893 252.414 125.132 252.646L83.6826 294.449L83.3262 294.097L82.9717 293.745L124.419 251.944ZM123.643 251.163C123.876 251.401 124.111 251.638 124.347 251.873L82.8994 293.674L82.5449 293.322L82.1895 292.97L123.643 251.163ZM293.63 292.854L293.278 293.209L292.926 293.564L251.317 252.306C251.555 252.072 251.791 251.837 252.025 251.601L293.63 292.854ZM294.406 292.073L294.055 292.428L293.702 292.783L252.097 251.528C252.331 251.291 252.565 251.053 252.797 250.813L294.406 292.073ZM118.089 244.947C118.299 245.206 118.511 245.463 118.725 245.719L73.1133 282.976L72.7969 282.588L72.4814 282.201L118.089 244.947ZM117.4 244.091C117.608 244.352 117.816 244.612 118.026 244.87L72.4189 282.124L72.1035 281.736L71.7871 281.35L117.4 244.091ZM304.021 281.223L303.396 282.002L257.706 245.321C257.918 245.064 258.129 244.806 258.338 244.547L304.021 281.223ZM304.712 280.365L304.085 281.145L258.4 244.468C258.609 244.208 258.817 243.947 259.022 243.685L304.712 280.365ZM112.522 237.333C112.705 237.612 112.889 237.889 113.074 238.166L63.8047 270.461L63.2559 269.625L112.522 237.333ZM111.926 236.409C112.105 236.691 112.286 236.971 112.468 237.25L63.2021 269.541L62.6543 268.705L111.926 236.409ZM313.141 268.568L312.87 268.988L312.6 269.41L263.331 237.71C263.515 237.432 263.697 237.152 263.878 236.872L313.141 268.568ZM313.737 267.645L313.467 268.064L313.196 268.485L263.933 236.788C264.113 236.508 264.291 236.227 264.469 235.944L313.737 267.645ZM108.242 230.067L55.8535 257.042L55.624 256.597L55.3955 256.153L107.781 229.181C107.933 229.477 108.087 229.773 108.242 230.067ZM107.735 229.093L55.3516 256.064L55.123 255.62L54.8936 255.176L107.285 228.2C107.434 228.499 107.584 228.796 107.735 229.093ZM320.887 255.031L320.662 255.477L320.437 255.924L268.129 229.549C268.282 229.253 268.434 228.957 268.584 228.659L320.887 255.031ZM321.383 254.049L321.158 254.496L320.932 254.941L268.63 228.569C268.78 228.272 268.928 227.973 269.074 227.674L321.383 254.049ZM103.922 220.578C104.042 220.889 104.164 221.199 104.288 221.509L49.3496 242.865L49.1689 242.399L48.9873 241.934L103.922 220.578ZM103.531 219.551C103.648 219.863 103.766 220.174 103.886 220.484L48.9512 241.84L48.7705 241.375L48.5898 240.908L103.531 219.551ZM327.175 240.758L326.82 241.692L272.043 220.931C272.165 220.62 272.285 220.309 272.403 219.997L327.175 240.758ZM327.566 239.729L327.212 240.664L272.438 219.903C272.556 219.592 272.672 219.279 272.786 218.966L327.566 239.729ZM100.986 211.62C101.073 211.942 101.162 212.263 101.253 212.584L44.3613 228.087L44.0996 227.122L100.986 211.62ZM100.706 210.557C100.789 210.88 100.874 211.202 100.961 211.523L44.0742 227.025L43.8125 226.061L100.706 210.557ZM331.938 225.905L331.811 226.389L331.683 226.872L275.024 211.946C275.112 211.625 275.199 211.303 275.283 210.98L331.938 225.905ZM332.218 224.841L332.091 225.325L331.963 225.809L275.309 210.884C275.393 210.561 275.475 210.238 275.556 209.914L332.218 224.841ZM99.0127 202.405C99.0653 202.734 99.1196 203.063 99.1758 203.391L40.9482 212.867L40.8682 212.374L40.7881 211.88L99.0127 202.405ZM98.8457 201.318C98.8944 201.648 98.9448 201.978 98.9971 202.307L40.7725 211.782L40.6914 211.288L40.6113 210.795L98.8457 201.318ZM335.121 210.636L334.969 211.624L277.041 202.699C277.095 202.371 277.147 202.042 277.197 201.712L335.121 210.636ZM335.288 209.549L335.136 210.537L277.212 201.613C277.262 201.284 277.31 200.954 277.356 200.624L335.288 209.549ZM98.0117 193.038C98.0299 193.371 98.0486 193.703 98.0703 194.035L39.1426 197.374L39.1152 196.875L39.0869 196.376L98.0117 193.038ZM97.959 191.939C97.9731 192.273 97.9881 192.606 98.0059 192.938L39.0801 196.276L39.0527 195.777L39.0244 195.278L97.959 191.939ZM336.69 195.118L336.643 196.117L278.074 193.296C278.093 192.963 278.111 192.63 278.127 192.297L336.69 195.118ZM336.744 194.02L336.695 195.019L278.131 192.196C278.146 191.864 278.159 191.531 278.171 191.197L336.744 194.02ZM97.9824 183.619C97.9663 183.952 97.9519 184.285 97.9395 184.618L38.9678 181.778L39.0156 180.779L97.9824 183.619ZM336.658 180.021L336.688 180.52L278.128 183.836C278.113 183.503 278.095 183.17 278.076 182.838L336.631 179.521L336.658 180.021ZM98.042 182.521C98.0219 182.853 98.0038 183.185 97.9873 183.519L39.0205 180.679L39.0684 179.681L98.042 182.521ZM336.596 178.923L336.625 179.422L278.07 182.737C278.051 182.404 278.03 182.072 278.007 181.74L336.568 178.424L336.596 178.923ZM98.9248 174.249C98.8743 174.578 98.8262 174.907 98.7793 175.237L40.4238 166.248L40.499 165.754L40.5752 165.261L98.9248 174.249ZM335.021 164.51L335.1 165.002L277.202 174.423C277.152 174.093 277.1 173.764 277.047 173.436L334.939 164.016L335.021 164.51ZM99.0977 173.163C99.0431 173.492 98.9914 173.821 98.9404 174.15L40.5898 165.161L40.667 164.667L40.7422 164.174L99.0977 173.163ZM334.844 163.424L334.924 163.917L277.031 173.337C276.977 173.008 276.921 172.679 276.863 172.352L334.763 162.931L334.844 163.424ZM100.841 165.028C100.756 165.351 100.673 165.673 100.592 165.997L43.4941 150.956L43.6211 150.473L43.749 149.989L100.841 165.028ZM331.899 149.737L275.294 165.16C275.21 164.838 275.124 164.516 275.036 164.194L331.637 148.771L331.899 149.737ZM101.128 163.966C101.039 164.287 100.952 164.609 100.866 164.932L43.7734 149.893L43.9004 149.409L44.0283 148.925L101.128 163.966ZM331.612 148.676L275.01 164.099C274.921 163.777 274.831 163.456 274.739 163.136L331.35 147.711L331.612 148.676ZM103.714 156.06C103.596 156.371 103.479 156.684 103.364 156.997L48.1455 136.068L48.499 135.133L103.714 156.06ZM326.94 134.423L327.122 134.89L272.422 156.151C272.304 155.84 272.184 155.529 272.062 155.219L326.76 133.958L326.94 134.423ZM104.11 155.034C103.988 155.344 103.868 155.655 103.749 155.967L48.5371 135.04L48.8906 134.104L104.11 155.034ZM326.542 133.398L326.725 133.864L272.026 155.126C271.904 154.815 271.781 154.505 271.655 154.196L326.361 132.933L326.542 133.398ZM107.514 147.445C107.363 147.743 107.214 148.041 107.067 148.34L54.3281 121.749L54.5547 121.302L54.7793 120.856L107.514 147.445ZM320.589 120.178L320.817 120.622L268.614 147.498C268.464 147.2 268.313 146.903 268.159 146.607L320.359 119.732L320.589 120.178ZM108.016 146.467C107.862 146.762 107.709 147.058 107.559 147.355L54.8242 120.767L55.0498 120.32L55.2744 119.874L108.016 146.467ZM320.087 119.2L320.316 119.645L268.113 146.521C267.96 146.225 267.804 145.93 267.647 145.636L319.858 118.756L320.087 119.2ZM112.191 139.275C112.011 139.555 111.832 139.836 111.654 140.118L61.9736 108.153L62.2441 107.733L62.5146 107.312L112.191 139.275ZM313.057 107.093L263.923 139.296C263.742 139.016 263.56 138.736 263.377 138.458L312.509 106.257L313.057 107.093ZM112.793 138.354C112.609 138.631 112.427 138.91 112.246 139.19L62.5713 107.229L63.1123 106.388L112.793 138.354ZM312.181 105.755L312.455 106.173L263.322 138.375C263.139 138.097 262.953 137.821 262.767 137.545L311.908 105.337L312.181 105.755ZM117.695 131.638C117.487 131.898 117.279 132.159 117.073 132.421L71 95.4326L71.626 94.6533L117.695 131.638ZM303.607 94.0615L303.925 94.4482L258.4 131.631C258.192 131.371 257.981 131.113 257.77 130.855L303.292 93.6738L303.607 94.0615ZM118.389 130.784C118.177 131.041 117.967 131.299 117.758 131.559L71.6895 94.5752L72.3154 93.7959L118.389 130.784ZM302.914 93.209L303.23 93.5957L257.707 130.778C257.495 130.521 257.282 130.265 257.067 130.01L302.598 92.8213L302.914 93.209ZM123.962 124.614C123.727 124.851 123.494 125.089 123.262 125.328L81.3047 83.7246L81.6572 83.3701L82.0098 83.0146L123.962 124.614ZM293.167 82.4746L293.522 82.8271L252.112 124.587C251.878 124.35 251.642 124.115 251.405 123.881L292.812 82.124L293.167 82.4746ZM124.741 123.836C124.504 124.07 124.268 124.305 124.033 124.542L82.0811 82.9434L82.4326 82.5889L82.7852 82.2334L124.741 123.836ZM292.385 81.7012L292.739 82.0527L251.333 123.809C251.096 123.575 250.856 123.343 250.616 123.111L292.029 81.3486L292.385 81.7012ZM130.923 118.275C130.665 118.487 130.409 118.7 130.153 118.914L92.7793 73.1572L93.167 72.8408L93.5537 72.5254L130.923 118.275ZM281.959 72.3574L245.127 118.234C244.869 118.023 244.611 117.814 244.351 117.605L281.18 71.7314L281.959 72.3574ZM131.777 117.584C131.517 117.792 131.257 118.003 130.999 118.214L93.6289 72.4629L94.0166 72.1455L94.4043 71.8291L131.777 117.584ZM280.713 71.3574L281.103 71.6689L244.273 117.543C244.013 117.335 243.751 117.129 243.488 116.924L280.322 71.0439L280.713 71.3574ZM138.504 112.692C138.225 112.876 137.948 113.061 137.671 113.248L105.293 63.8477L105.711 63.5732L106.13 63.2998L138.504 112.692ZM268.945 62.8838L269.366 63.1543L237.522 112.644C237.244 112.461 236.965 112.279 236.685 112.099L268.525 62.6133L268.945 62.8838ZM139.426 112.093C139.145 112.273 138.865 112.455 138.587 112.638L106.213 63.2451L106.631 62.9707L107.05 62.6973L139.426 112.093ZM268.021 62.2891L268.442 62.5596L236.602 112.046C236.321 111.866 236.039 111.688 235.756 111.511L267.601 62.0186L268.021 62.2891ZM146.628 107.932C146.332 108.085 146.036 108.24 145.742 108.396L118.712 55.8975L119.157 55.668L119.602 55.4395L146.628 107.932ZM147.606 107.432C147.309 107.581 147.012 107.733 146.716 107.886L119.689 55.3936L120.135 55.165L120.579 54.9365L147.606 107.432ZM255.882 55.3174L229.377 107.882C229.081 107.729 228.783 107.578 228.485 107.428L254.988 54.8682L255.882 55.3174ZM254.898 54.8223L228.396 107.382C228.098 107.232 227.799 107.086 227.499 106.939L254.005 54.373L254.898 54.8223ZM155.205 104.043C154.895 104.164 154.585 104.288 154.276 104.413L132.89 49.3926L133.821 49.0312L155.205 104.043ZM156.231 103.649C155.919 103.767 155.608 103.887 155.298 104.008L133.913 48.9941L134.846 48.6328L156.231 103.649ZM241.648 48.9326L220.777 103.997C220.467 103.876 220.156 103.757 219.844 103.64L240.714 48.5791L241.648 48.9326ZM240.622 48.543L219.751 103.605C219.44 103.488 219.128 103.372 218.814 103.259L239.688 48.1895L240.622 48.543ZM164.145 101.077C163.823 101.165 163.503 101.256 163.183 101.348L147.667 44.4062L148.632 44.1436L164.145 101.077ZM165.209 100.793C164.886 100.877 164.564 100.963 164.242 101.051L148.729 44.1172L149.694 43.8545L165.209 100.793ZM226.346 43.9443L226.828 44.0713L211.82 101.04C211.499 100.953 211.177 100.867 210.854 100.783L225.862 43.8174L226.346 43.9443ZM225.281 43.6641L225.766 43.792L210.759 100.758C210.436 100.674 210.113 100.593 209.789 100.513L224.799 43.5371L225.281 43.6641ZM173.35 99.0664C173.02 99.1204 172.691 99.1768 172.363 99.2344L162.887 40.9912L163.381 40.9121L163.874 40.8311L173.35 99.0664ZM174.437 98.8955C174.107 98.9455 173.777 98.9972 173.448 99.0508L163.973 40.8154L164.467 40.7344L164.96 40.6543L174.437 98.8955ZM211.088 40.71L211.582 40.7852L202.606 99.043C202.277 98.9896 201.948 98.9385 201.617 98.8887L210.593 40.6328L211.088 40.71ZM210 40.542L210.494 40.6191L201.519 98.874C201.189 98.8247 200.859 98.7762 200.528 98.7305L209.505 40.4668L210 40.542ZM182.715 98.0303C182.382 98.0497 182.049 98.0707 181.717 98.0938L178.38 39.1865L178.879 39.1582L179.379 39.1299L182.715 98.0303ZM183.812 97.9727C183.479 97.9881 183.146 98.0054 182.813 98.0244L179.478 39.124L179.977 39.0957L180.477 39.0674L183.812 97.9727ZM196.074 39.1113L193.236 98.0215C192.904 98.0026 192.571 97.9859 192.237 97.9707L195.075 39.0635L196.074 39.1113ZM194.975 39.0586L192.137 97.9668C191.804 97.952 191.471 97.938 191.138 97.9268L193.977 39.0107L194.975 39.0586Z" fill="white"/>
</svg>
