<svg width="375" height="375" viewBox="0 0 375 375" fill="none" xmlns="http://www.w3.org/2000/svg">
<path opacity="0.5" d="M187.835 338.708V375H187.165V338.704C187.388 338.705 187.612 338.708 187.835 338.708ZM188.935 375H188.265V338.708C188.488 338.708 188.711 338.705 188.935 338.704V375ZM172.522 337.918L168.781 373.516L168.115 373.445L171.856 337.846C172.078 337.869 172.3 337.895 172.522 337.918ZM206.886 373.445L206.22 373.516L202.489 338.023C202.711 338.002 202.933 337.982 203.155 337.96L206.886 373.445ZM171.429 337.8L167.688 373.4L167.354 373.366L167.021 373.331L170.762 337.729C170.984 337.754 171.206 337.775 171.429 337.8ZM207.979 373.33L207.312 373.4L203.583 337.917C203.805 337.894 204.026 337.869 204.248 337.846L207.979 373.33ZM156.836 335.469L149.383 370.537L149.055 370.467L148.727 370.397L156.18 335.33C156.398 335.377 156.617 335.423 156.836 335.469ZM226.273 370.397L225.946 370.467L225.618 370.537L218.21 335.688C218.429 335.644 218.648 335.598 218.866 335.553L226.273 370.397ZM155.759 335.24L148.306 370.309L147.979 370.238L147.65 370.169L155.105 335.094C155.323 335.142 155.541 335.193 155.759 335.24ZM227.349 370.169L227.021 370.238L226.693 370.309L219.286 335.464C219.505 335.418 219.724 335.372 219.942 335.325L227.349 370.169ZM140.863 331.17C141.075 331.24 141.287 331.311 141.499 331.38L130.398 365.547L129.762 365.34L140.863 331.17ZM245.234 365.34L244.916 365.443L244.597 365.547L233.599 331.699C233.812 331.632 234.025 331.564 234.237 331.496L245.234 365.34ZM140.46 331.036L129.357 365.207L129.038 365.104L128.72 365L139.823 330.824C140.035 330.896 140.248 330.966 140.46 331.036ZM246.284 365L245.647 365.207L234.65 331.364C234.863 331.295 235.074 331.223 235.286 331.153L246.284 365ZM126.697 325.689L112.046 358.6L111.74 358.464L111.435 358.327L126.086 325.418C126.289 325.51 126.494 325.599 126.697 325.689ZM263.568 358.327L263.262 358.464L262.956 358.6L248.485 326.098C248.69 326.008 248.893 325.916 249.098 325.825L263.568 358.327ZM125.693 325.237L111.039 358.152L110.733 358.017L110.428 357.88L125.085 324.958C125.288 325.051 125.49 325.145 125.693 325.237ZM264.57 357.88L264.265 358.017L263.958 358.152L249.487 325.652C249.691 325.561 249.896 325.471 250.1 325.379L264.57 357.88ZM112.586 318.474L94.5166 349.772L94.2266 349.604L93.9365 349.438L112.008 318.136C112.2 318.249 112.393 318.362 112.586 318.474ZM281.063 349.438L280.773 349.604L280.483 349.772L262.688 318.949C262.881 318.838 263.075 318.728 263.269 318.616L281.063 349.438ZM111.06 317.576C111.252 317.691 111.443 317.805 111.636 317.919L93.5635 349.223L93.2734 349.055L92.9834 348.888L111.06 317.576ZM282.017 348.888L281.727 349.055L281.437 349.223L263.641 318.399C263.834 318.287 264.027 318.176 264.22 318.062L282.017 348.888ZM99.3203 309.822L78.0059 339.161L77.7344 338.964L77.4639 338.767L98.7812 309.424C98.9611 309.556 99.1398 309.691 99.3203 309.822ZM297.535 338.768L297.265 338.964L296.993 339.161L276.056 310.344C276.237 310.213 276.419 310.084 276.6 309.952L297.535 338.768ZM97.8975 308.771C98.0764 308.905 98.257 309.037 98.4365 309.17L77.1172 338.515L76.8457 338.317L76.5752 338.121L97.8975 308.771ZM298.426 338.121L298.155 338.317L297.884 338.515L276.947 309.698C277.128 309.566 277.307 309.433 277.486 309.3L298.426 338.121ZM86.5508 299.388C86.7158 299.538 86.8812 299.688 87.0469 299.838L62.6973 326.882L62.4482 326.658L62.1992 326.434L86.5508 299.388ZM312.804 326.434L312.555 326.657L312.306 326.882L288.446 300.383C288.613 300.234 288.779 300.085 288.944 299.936L312.804 326.434ZM313.618 325.698L313.369 325.922L313.12 326.146L289.263 299.649C289.428 299.5 289.591 299.348 289.756 299.197L313.618 325.698ZM86.2324 299.095L61.877 326.146L61.6279 325.922L61.3789 325.697L85.7393 298.642C85.9031 298.793 86.0679 298.944 86.2324 299.095ZM326.694 312.572L326.471 312.821L326.246 313.07L299.719 289.186C299.869 289.02 300.018 288.853 300.167 288.687L326.694 312.572ZM75.8867 288.635L48.751 313.069L48.5273 312.82L48.3027 312.571L75.4395 288.137C75.5877 288.303 75.7377 288.469 75.8867 288.635ZM75.1562 287.816L48.0176 312.253L47.7939 312.004L47.5693 311.755L74.7139 287.312C74.8612 287.481 75.0082 287.649 75.1562 287.816ZM327.433 311.755L327.209 312.003L326.984 312.252L300.455 288.365C300.604 288.199 300.752 288.032 300.9 287.865L327.433 311.755ZM65.9629 276.344L36.3271 297.876L36.1309 297.604L35.9336 297.334L65.5713 275.8C65.7016 275.981 65.8318 276.163 65.9629 276.344ZM339.062 297.334L338.865 297.604L338.669 297.876L309.756 276.869C309.888 276.689 310.018 276.508 310.148 276.327L339.062 297.334ZM64.9346 274.906C65.0636 275.089 65.1925 275.271 65.3223 275.453L35.6855 296.986L35.4883 296.715L35.291 296.444L64.9346 274.906ZM339.713 296.444L339.516 296.715L339.319 296.986L310.401 275.976C310.532 275.794 310.663 275.614 310.793 275.433L339.713 296.444ZM57.0498 262.512C57.1605 262.706 57.2703 262.901 57.3818 263.095L25.5615 281.467L25.3936 281.177L25.2266 280.886L57.0498 262.512ZM349.771 280.886L349.604 281.177L349.437 281.467L318.44 263.571C318.553 263.378 318.667 263.185 318.778 262.991L349.771 280.886ZM56.8389 262.139L25.0137 280.514L24.8467 280.224L24.6787 279.934L56.5078 261.556C56.617 261.751 56.7288 261.944 56.8389 262.139ZM350.323 279.934L350.156 280.224L349.988 280.514L318.99 262.617C319.101 262.423 319.21 262.229 319.32 262.034L350.323 279.934ZM50.2441 249.028L16.5703 264.021L16.4346 263.716L16.2979 263.409L49.9717 248.416C50.0613 248.621 50.1536 248.824 50.2441 249.028ZM358.703 263.409L358.566 263.716L358.431 264.021L325.674 249.437C325.765 249.233 325.856 249.029 325.946 248.824L358.703 263.409ZM49.8008 248.021L16.1221 263.017L15.9863 262.711L15.8496 262.405L49.5371 247.406C49.625 247.611 49.712 247.816 49.8008 248.021ZM359.149 262.405L359.013 262.711L358.877 263.017L326.121 248.433C326.211 248.228 326.297 248.022 326.386 247.817L359.149 262.405ZM44.625 234.303L9.44922 245.732L9.3457 245.414L9.24219 245.095L44.4219 233.663C44.4895 233.876 44.5564 234.09 44.625 234.303ZM365.756 245.096L365.549 245.732L331.372 234.627C331.441 234.415 331.506 234.202 331.574 233.989L365.756 245.096ZM44.0918 232.616C44.1577 232.829 44.2251 233.042 44.292 233.255L9.11133 244.687L8.9043 244.05L44.0918 232.616ZM366.098 244.049L365.994 244.368L365.891 244.687L331.705 233.578C331.772 233.365 331.842 233.153 331.908 232.939L366.098 244.049ZM40.5918 219.08L4.28027 226.799L4.21094 226.472L4.1416 226.144L40.4531 218.425C40.4979 218.644 40.5461 218.862 40.5918 219.08ZM370.857 226.144L370.787 226.472L370.718 226.799L335.461 219.304C335.507 219.085 335.554 218.867 335.599 218.648L370.857 226.144ZM40.3701 218.004L4.05371 225.724L3.9834 225.396L3.91406 225.068L40.2393 217.347C40.2825 217.566 40.326 217.785 40.3701 218.004ZM371.088 225.068L371.018 225.396L370.948 225.724L335.686 218.228C335.73 218.009 335.772 217.789 335.815 217.57L371.088 225.068ZM38.1123 202.866C38.134 203.089 38.154 203.312 38.1768 203.534L1.12012 207.43L1.08496 207.096L1.0498 206.763L38.1123 202.866ZM373.951 206.763L373.881 207.429L337.911 203.647C337.934 203.426 337.955 203.204 337.977 202.981L373.951 206.763ZM38.0713 202.439L1.00391 206.336L0.96875 206.002L0.93457 205.669L38.0078 201.771C38.0279 201.994 38.0502 202.217 38.0713 202.439ZM374.064 205.669L374.03 206.003L373.995 206.336L338.018 202.554C338.039 202.331 338.061 202.109 338.081 201.887L374.064 205.669ZM375 187.165V187.835H338.709C338.709 187.612 338.706 187.388 338.705 187.165H375ZM37.3916 187.835H0V187.165H37.3965C37.3952 187.388 37.3919 187.612 37.3916 187.835ZM375 186.065V186.735H338.702C338.7 186.512 338.7 186.289 338.697 186.065H375ZM37.4043 186.065C37.4014 186.289 37.4013 186.512 37.3994 186.735H0V186.065H37.4043ZM38.2939 171.483C38.2697 171.705 38.245 171.927 38.2217 172.149L0.935547 168.231L0.969727 167.897L1.00488 167.564L38.2939 171.483ZM374.031 167.898L374.065 168.231L337.866 172.035C337.843 171.813 337.818 171.591 337.794 171.369L373.996 167.564L374.031 167.898ZM38.416 170.391C38.3901 170.612 38.3648 170.834 38.3398 171.057L1.04883 167.138L1.08398 166.805L1.11914 166.471L38.416 170.391ZM373.915 166.804L373.95 167.138L337.748 170.942C337.723 170.72 337.696 170.498 337.67 170.276L373.88 166.471L373.915 166.804ZM40.8096 155.989C40.7623 156.207 40.7172 156.426 40.6709 156.645L3.91211 148.832L3.98242 148.505L4.05176 148.177L40.8096 155.989ZM371.017 148.505L371.086 148.832L335.382 156.421C335.335 156.202 335.29 155.984 335.242 155.766L370.946 148.177L371.017 148.505ZM41.0488 154.916C41 155.134 40.9493 155.351 40.9014 155.569L4.14258 147.757L4.21289 147.429L4.28223 147.102L41.0488 154.916ZM370.789 147.429L370.858 147.757L335.148 155.347C335.1 155.129 335.051 154.911 335.002 154.693L370.72 147.102L370.789 147.429ZM44.9336 140.854C44.8636 141.066 44.7917 141.278 44.7227 141.49L8.90234 129.852L9.00586 129.532L9.10938 129.214L44.9336 140.854ZM366.096 129.851L331.27 141.165C331.2 140.953 331.13 140.742 331.06 140.53L365.889 129.214L366.096 129.851ZM45.2793 139.809C45.2079 140.02 45.1389 140.232 45.0684 140.444L9.24414 128.805L9.45117 128.168L45.2793 139.809ZM365.654 128.486L365.758 128.806L330.925 140.123C330.854 139.911 330.782 139.699 330.71 139.487L365.551 128.168L365.654 128.486ZM50.6133 126.239C50.5217 126.443 50.4325 126.647 50.3418 126.851L15.8506 111.495L15.9873 111.189L16.123 110.884L50.6133 126.239ZM359.014 111.189L359.15 111.495L325.576 126.442C325.485 126.239 325.394 126.034 325.302 125.831L358.878 110.883L359.014 111.189ZM51.0703 125.239C50.9772 125.442 50.8833 125.644 50.791 125.848L16.2969 110.49L16.5703 109.879L51.0703 125.239ZM358.565 110.185L358.702 110.491L325.122 125.44C325.029 125.237 324.937 125.035 324.843 124.832L358.43 109.879L358.565 110.185ZM57.7871 112.309C57.6746 112.502 57.5609 112.694 57.4492 112.888L24.6768 93.9668L24.8438 93.6768L25.0117 93.3857L57.7871 112.309ZM350.153 93.6768L350.321 93.9668L318.373 112.411C318.261 112.218 318.147 112.025 318.034 111.832L349.986 93.3857L350.153 93.6768ZM58.3438 111.358C58.2298 111.551 58.117 111.744 58.0039 111.937L25.2285 93.0137L25.3965 92.7236L25.5635 92.4336L58.3438 111.358ZM349.606 92.7236L349.773 93.0137L317.818 111.462C317.705 111.27 317.588 111.079 317.474 110.888L349.438 92.4336L349.606 92.7236ZM66.3613 99.2051C66.2296 99.3851 66.0996 99.5664 65.9688 99.7471L35.2871 77.4561L35.4844 77.1855L35.6807 76.9141L66.3613 99.2051ZM339.512 77.1855L339.709 77.4561L309.75 99.2217C309.618 99.0413 309.484 98.8624 309.352 98.6826L339.314 76.9141L339.512 77.1855ZM67.0166 98.3193C66.8837 98.4984 66.7513 98.6778 66.6191 98.8574L35.9375 76.5664L36.1348 76.2959L36.3311 76.0244L67.0166 98.3193ZM338.869 76.2959L339.066 76.5664L309.098 98.3389C308.965 98.1595 308.832 97.9795 308.698 97.8008L338.673 76.0244L338.869 76.2959ZM76.2451 87.0654C76.0954 87.2311 75.9459 87.3971 75.7969 87.5635L47.5674 62.1455L47.791 61.8965L48.0156 61.6484L76.2451 87.0654ZM327.206 61.8965L327.431 62.1455L299.81 87.0146C299.66 86.8489 299.509 86.6837 299.358 86.5186L326.982 61.6475L327.206 61.8965ZM76.9873 86.251C76.8363 86.4157 76.6835 86.5788 76.5332 86.7441L48.3057 61.3281L48.5293 61.0791L48.7539 60.8301L76.9873 86.251ZM326.473 61.0801L326.697 61.3291L299.069 86.2041C298.918 86.0396 298.768 85.8747 298.616 85.7109L326.249 60.8311L326.473 61.0801ZM87.3242 76.0127C87.1583 76.1619 86.9914 76.31 86.8262 76.46L61.3818 48.2021L61.6309 47.9785L61.8799 47.7539L87.3242 76.0127ZM313.372 47.9785L313.621 48.2031L288.668 75.916C288.502 75.7666 288.336 75.6164 288.169 75.4678L313.123 47.7549L313.372 47.9785ZM88.1416 75.2803C87.9745 75.4285 87.8091 75.5786 87.6426 75.7275L62.1963 47.4668L62.4453 47.2432L62.6943 47.0186L88.1416 75.2803ZM312.552 47.2422L312.801 47.4668L287.846 75.1807C287.678 75.0327 287.51 74.8865 287.342 74.7393L312.303 47.0186L312.552 47.2422ZM99.4775 66.1631C99.2968 66.2946 99.1176 66.4282 98.9375 66.5605L76.5742 35.7793L76.8447 35.583L77.1162 35.3857L99.4775 66.1631ZM298.154 35.583L298.425 35.7793L276.442 66.0342C276.262 65.9031 276.081 65.7729 275.899 65.6426L297.883 35.3857L298.154 35.583ZM100.37 65.5205C100.189 65.6505 100.008 65.7813 99.8271 65.9121L77.4648 35.1328L77.7354 34.9365L78.0068 34.7393L100.37 65.5205ZM297.266 34.9365L297.536 35.1328L275.551 65.3916C275.369 65.2617 275.187 65.132 275.005 65.0029L296.994 34.7393L297.266 34.9365ZM112.586 57.626C112.393 57.738 112.2 57.85 112.007 57.9629L92.9834 25.0127L93.2734 24.8447L93.5635 24.6777L112.586 57.626ZM281.727 24.8457L282.017 25.0127L263.27 57.4824C263.076 57.3707 262.882 57.2603 262.688 57.1494L281.437 24.6777L281.727 24.8457ZM113.539 57.0771C113.345 57.1878 113.151 57.2977 112.957 57.4092L93.9365 24.4629L94.2266 24.2959L94.5166 24.1279L113.539 57.0771ZM280.773 24.2949L281.063 24.4629L262.313 56.9375C262.119 56.8273 261.925 56.7168 261.73 56.6074L280.483 24.1279L280.773 24.2949ZM126.511 50.4932C126.307 50.5845 126.103 50.6744 125.899 50.7666L110.43 16.0205L110.735 15.8838L111.042 15.748L126.511 50.4932ZM264.267 15.8838L264.572 16.0205L249.284 50.3564C249.081 50.2657 248.877 50.1748 248.673 50.085L263.961 15.748L264.267 15.8838ZM127.514 50.0469C127.309 50.1367 127.105 50.2286 126.901 50.3193L111.432 15.5732L111.738 15.4365L112.044 15.3008L127.514 50.0469ZM263.26 15.4365L263.565 15.5732L248.276 49.9102C248.072 49.821 247.867 49.7338 247.662 49.6455L262.954 15.3008L263.26 15.4365ZM141.101 44.8506C140.888 44.9201 140.677 44.9911 140.465 45.0615L128.716 8.90039L129.353 8.69336L141.101 44.8506ZM245.962 8.79688L246.28 8.90039L234.638 44.7314C234.425 44.6624 234.212 44.5955 233.999 44.5273L245.643 8.69336L245.962 8.79688ZM142.151 44.5117C141.939 44.5797 141.725 44.6459 141.513 44.7148L129.766 8.56055L130.084 8.45703L130.403 8.35352L142.151 44.5117ZM245.238 8.56055L233.593 44.3984C233.38 44.3311 233.168 44.2617 232.955 44.1953L244.602 8.35352L245.238 8.56055ZM156.207 40.7637C155.989 40.8106 155.771 40.8574 155.553 40.9053L147.651 3.73145L147.979 3.66211L148.307 3.5918L156.207 40.7637ZM227.021 3.66211L227.35 3.73145L219.495 40.6797C219.277 40.6333 219.059 40.5864 218.84 40.541L226.694 3.5918L227.021 3.66211ZM157.283 40.5361C157.064 40.5816 156.846 40.6284 156.627 40.6748L148.727 3.50293L149.054 3.43359L149.382 3.36328L157.283 40.5361ZM225.945 3.43359L226.273 3.50293L218.419 40.4521C218.2 40.4073 217.98 40.3652 217.761 40.3213L225.617 3.36328L225.945 3.43359ZM171.657 38.2744C171.435 38.2984 171.213 38.3217 170.991 38.3467L167.021 0.570312L167.688 0.5L171.657 38.2744ZM172.75 38.1572C172.528 38.1796 172.306 38.2051 172.084 38.2285L168.114 0.455078L168.78 0.384766L172.75 38.1572ZM207.646 0.53418L207.979 0.569336L204.021 38.2285C203.799 38.2051 203.577 38.1806 203.354 38.1582L207.312 0.5L207.646 0.53418ZM206.885 0.455078L202.926 38.1172C202.704 38.0954 202.481 38.0745 202.259 38.0537L206.219 0.384766L206.885 0.455078ZM187.835 37.3916C187.612 37.3919 187.388 37.3942 187.165 37.3955V0H187.835V37.3916ZM188.935 37.3955C188.711 37.3942 188.488 37.3919 188.265 37.3916V0H188.935V37.3955Z" fill="white"/>
</svg>
