<svg width="666" height="142" viewBox="0 0 666 142" fill="none" xmlns="http://www.w3.org/2000/svg">
<path d="M562.129 60.0443C556.968 60.0443 552.647 61.9149 549.163 65.6563C545.809 69.3977 544.132 74.2356 544.132 80.1702V139H517.039V37.209H544.132V47.659C547.357 43.6597 551.356 40.6279 556.13 38.5636C560.903 36.3704 566.128 35.2738 571.805 35.2738C577.74 35.2738 583.094 36.4995 587.867 38.9507C592.64 41.2729 596.446 44.6918 599.285 49.2072C603.929 44.4337 608.832 40.9504 613.992 38.7572C619.153 36.4349 624.765 35.2738 630.828 35.2738C641.278 35.2738 649.6 38.6282 655.792 45.3368C662.114 51.9165 665.275 60.7538 665.275 71.8489V139H638.182V79.5897C638.182 73.139 636.827 68.3011 634.118 65.0758C631.538 61.7214 627.732 60.0443 622.7 60.0443C617.54 60.0443 613.218 61.9149 609.735 65.6563C606.38 69.3977 604.703 74.2356 604.703 80.1702V139H577.61V79.5897C577.61 73.139 576.256 68.3011 573.547 65.0758C570.966 61.7214 567.16 60.0443 562.129 60.0443Z" fill="#1E1E1C"/>
<path d="M461.334 141.129C453.851 141.129 446.949 139.839 440.628 137.258C434.306 134.678 428.887 130.937 424.372 126.034C419.986 121.261 416.631 115.649 414.309 109.198C411.987 102.747 410.826 95.7163 410.826 88.1045C410.826 80.8798 411.987 74.1066 414.309 67.785C416.631 61.3344 419.986 55.7223 424.372 50.9489C428.887 45.9174 434.241 42.047 440.434 39.3377C446.627 36.6285 453.271 35.2738 460.367 35.2738C474.558 35.2738 485.847 39.9828 494.232 49.4007C502.618 58.6896 506.811 70.9458 506.811 86.1693V94.1036H436.757C437.66 101.844 440.305 107.908 444.691 112.294C449.207 116.681 454.819 118.874 461.528 118.874C466.946 118.874 471.526 117.584 475.268 115.004C479.138 112.423 481.847 108.747 483.395 103.973L506.231 112.101C502.618 121.132 496.813 128.227 488.814 133.388C480.944 138.548 471.784 141.129 461.334 141.129ZM460.173 56.948C454.625 56.948 449.852 58.5606 445.853 61.7859C441.982 65.0112 439.273 69.6557 437.725 75.7193H479.912C479.783 70.0427 477.912 65.5273 474.3 62.173C470.817 58.6896 466.108 56.948 460.173 56.948Z" fill="#1E1E1C"/>
<path d="M346.653 141.129C339.816 141.129 333.558 139.71 327.882 136.871C322.205 134.033 317.367 129.969 313.368 124.68C309.756 119.906 306.982 114.423 305.047 108.23C303.24 101.909 302.337 95.2002 302.337 88.1045C302.337 81.0088 303.24 74.3647 305.047 68.1721C306.982 61.8504 309.756 56.3674 313.368 51.7229C317.367 46.3044 322.205 42.2405 327.882 39.5313C333.558 36.693 339.816 35.2738 346.653 35.2738C352.588 35.2738 358.006 36.3704 362.909 38.5636C367.811 40.6279 371.875 43.6597 375.101 47.659V0.0533752H402.193V139H375.101V128.55C371.875 132.549 367.811 135.646 362.909 137.839C358.006 140.032 352.588 141.129 346.653 141.129ZM375.681 91.0073V85.3952C375.681 77.1384 373.617 70.6233 369.488 65.8498C365.36 60.9473 359.877 58.4961 353.039 58.4961C345.686 58.4961 339.945 61.1409 335.816 66.4304C331.688 71.7199 329.624 78.9446 329.624 88.1045C329.624 97.3934 331.688 104.683 335.816 109.972C339.945 115.262 345.686 117.906 353.039 117.906C359.877 117.906 365.36 115.52 369.488 110.746C373.617 105.844 375.681 99.2641 375.681 91.0073Z" fill="#1E1E1C"/>
<path d="M230.108 139H203.015V37.209H230.108V47.659C233.462 43.6597 237.526 40.6279 242.299 38.5636C247.073 36.3704 252.298 35.2738 257.975 35.2738C268.425 35.2738 276.746 38.5637 282.938 45.1433C289.131 51.7229 292.227 60.6248 292.227 71.8489V139H265.135V79.5897C265.135 73.2681 263.716 68.4301 260.877 65.0758C258.168 61.7214 254.169 60.0443 248.879 60.0443C243.461 60.0443 238.945 61.9149 235.333 65.6563C231.849 69.2687 230.108 74.1066 230.108 80.1702V139Z" fill="#1E1E1C"/>
<path d="M160.451 129.518C157.097 133.13 152.84 135.904 147.679 137.839C142.519 139.774 136.713 140.742 130.262 140.742C120.07 140.742 111.749 137.968 105.299 132.42C98.8479 126.873 95.6226 119.648 95.6226 110.746C95.6226 101.973 98.5899 94.9422 104.524 89.6527C110.588 84.2341 119.877 80.4283 132.391 78.235L157.742 73.3971V71.8489C157.742 67.0755 156.452 63.5276 153.872 61.2054C151.292 58.8831 147.357 57.722 142.067 57.722C137.165 57.722 133.294 58.8186 130.456 61.0118C127.618 63.2051 125.618 66.6239 124.457 71.2684L98.7189 66.4304C101.299 57.0125 106.524 49.4652 114.394 43.7887C122.393 38.1121 131.94 35.2738 143.035 35.2738C156.323 35.2738 166.515 38.3056 173.611 44.3692C180.706 50.4328 184.254 59.2057 184.254 70.6878V112.294C184.254 115.004 184.899 116.874 186.189 117.906C187.48 118.81 189.608 119.068 192.576 118.681V139C184.19 140.161 177.288 139.968 171.869 138.419C166.58 136.871 162.774 133.904 160.451 129.518ZM135.681 120.229C142.003 120.229 147.228 118.616 151.356 115.391C155.613 112.165 157.742 107.972 157.742 102.812V92.3619L137.81 96.4258C132.262 97.4579 128.263 99.0061 125.812 101.07C123.489 103.134 122.328 105.844 122.328 109.198C122.328 112.681 123.489 115.391 125.812 117.326C128.263 119.261 131.553 120.229 135.681 120.229Z" fill="#1E1E1C"/>
<path d="M116.627 0.0533752V24.6303H73.0854V139H44.6381V24.6303H0.902832V0.0533752H116.627Z" fill="#1E1E1C"/>
</svg>
